<?xml version="1.0" encoding="UTF-8" standalone="no"?>
<svg
   xmlns:dc="http://purl.org/dc/elements/1.1/"
   xmlns:cc="http://creativecommons.org/ns#"
   xmlns:rdf="http://www.w3.org/1999/02/22-rdf-syntax-ns#"
   xmlns:svg="http://www.w3.org/2000/svg"
   xmlns="http://www.w3.org/2000/svg"
   xmlns:sodipodi="http://sodipodi.sourceforge.net/DTD/sodipodi-0.dtd"
   xmlns:inkscape="http://www.inkscape.org/namespaces/inkscape"
   inkscape:version="1.0 (4035a4fb49, 2020-05-01)"
   sodipodi:docname="certificate_pd_blue_2021.05.20.svg"
   version="1.1"
   id="svg2"
   viewBox="0 0 1052.3622 744.09448"
   height="210mm"
   width="297mm">
  <sodipodi:namedview
     inkscape:document-rotation="0"
     inkscape:current-layer="svg2"
     inkscape:window-maximized="1"
     inkscape:window-y="-8"
     inkscape:window-x="-8"
     inkscape:cy="396.85039"
     inkscape:cx="561.25984"
     inkscape:zoom="0.79249008"
     showgrid="false"
     id="namedview75"
     inkscape:window-height="899"
     inkscape:window-width="1920"
     inkscape:pageshadow="2"
     inkscape:pageopacity="0"
     guidetolerance="10"
     gridtolerance="10"
     objecttolerance="10"
     borderopacity="1"
     bordercolor="#666666"
     pagecolor="#ffffff" />
  <defs
     id="defs4">
    <clipPath
       clipPathUnits="userSpaceOnUse"
       id="clipPath4316">
      <rect
         style="opacity:1;fill:#aaccff;fill-opacity:1;stroke:none;stroke-width:2;stroke-linecap:round;stroke-miterlimit:4;stroke-dasharray:none;stroke-dashoffset:0;stroke-opacity:1"
         id="rect4318"
         width="711.80804"
         height="257.80746"
         x="0"
         y="802.66187" />
    </clipPath>
    <clipPath
       id="clipPath18"
       clipPathUnits="userSpaceOnUse">
      <path
         id="path16"
         d="M 0,800 H 800 V 0 H 0 Z" />
    </clipPath>
    <clipPath
       id="clipPath734"
       clipPathUnits="userSpaceOnUse">
      <path
         id="path732"
         d="M 0,800 H 800 V 0 H 0 Z" />
    </clipPath>
  </defs>
  <metadata
     id="metadata7">
    <rdf:RDF>
      <cc:Work
         rdf:about="">
        <dc:format>image/svg+xml</dc:format>
        <dc:type
           rdf:resource="http://purl.org/dc/dcmitype/StillImage" />
        <dc:title />
      </cc:Work>
    </rdf:RDF>
  </metadata>
  <text
     id="text4133"
     y="-69.905251"
     x="107.01989"
     style="font-style:normal;font-weight:normal;font-size:40px;line-height:125%;font-family:sans-serif;letter-spacing:0px;word-spacing:0px;fill:#000000;fill-opacity:1;stroke:none;stroke-width:1px;stroke-linecap:butt;stroke-linejoin:miter;stroke-opacity:1"
     xml:space="preserve"><tspan
       y="-69.905251"
       x="107.01989"
       id="tspan4135" /></text>
  <path
     id="path4320"
     d="M 0.47490611,602.60044 0.968046,744.90518 1052.2194,744.09448 1052.4987,601.11641 Z"
     style="fill:#3d82ab;fill-opacity:1;fill-rule:evenodd;stroke:none;stroke-width:1px;stroke-linecap:butt;stroke-linejoin:miter;stroke-opacity:1" />
  <text
     id="text4137"
     y="651.76093"
     x="50.615299"
     style="font-style:normal;font-weight:normal;font-size:40px;line-height:125%;font-family:sans-serif;letter-spacing:0px;word-spacing:0px;fill:#d7f4e3;fill-opacity:1;stroke:none;stroke-width:1px;stroke-linecap:butt;stroke-linejoin:miter;stroke-opacity:1"
     xml:space="preserve"><tspan
       style="font-style:normal;font-variant:normal;font-weight:normal;font-stretch:normal;font-size:22.5px;font-family:Economica;-inkscape-font-specification:Economica;fill:#d7f4e3"
       y="651.76093"
       x="50.615299"
       id="tspan4139">This certificate is also available online at the following URL:</tspan></text>
  <path
     id="path4225"
     d="m 860.31918,605.39575 -51.65559,76.28536 32.47349,-0.77775 0.77775,32.47352 55.25554,-79.64955 z"
     style="fill:#d5e5ff;fill-opacity:1;fill-rule:evenodd;stroke:none;stroke-width:1px;stroke-linecap:butt;stroke-linejoin:miter;stroke-opacity:1" />
  <path
     id="path4225-6"
     d="m 946.80372,604.32694 51.65558,76.28536 -32.47348,-0.77774 -0.77775,32.47352 -55.25554,-79.64956 z"
     style="fill:#d5e5ff;fill-opacity:1;fill-rule:evenodd;stroke:none;stroke-width:1px;stroke-linecap:butt;stroke-linejoin:miter;stroke-opacity:1" />
  <path
     d="m 949.10862,639.6777 -2.00897,8.93679 -8.93954,-1.99672 -3.38226,8.51249 -8.51712,-3.37059 -4.67226,7.87859 -7.88499,-4.66147 -5.84722,7.05069 -7.0587,-5.83756 -6.8782,6.04917 -6.0586,-6.86991 -7.73982,4.89871 -4.90931,-7.7331 -8.41086,3.62762 -3.63915,-8.40588 -8.87479,2.26721 -2.27937,-8.87168 -9.1202,0.85098 -0.86348,-9.11903 -9.14103,-0.58621 0.57368,-9.14184 -8.93679,-2.00897 1.99672,-8.93954 -8.51249,-3.38226 3.37059,-8.51712 -7.87858,-4.67226 4.66146,-7.88499 -7.05068,-5.84722 5.83755,-7.0587 -6.04917,-6.8782 6.86991,-6.0586 -4.89871,-7.73982 7.73311,-4.90931 -3.62763,-8.41086 8.40589,-3.63915 -2.26722,-8.87479 8.87168,-2.27937 -0.85097,-9.1202 9.11903,-0.86347 0.58621,-9.14104 9.14183,0.57369 2.00897,-8.93679 8.93954,1.99672 3.38226,-8.51249 8.51712,3.37059 4.67227,-7.87859 7.88498,4.66146 5.84723,-7.05068 7.05869,5.83756 6.87821,-6.04918 6.05859,6.86992 7.73982,-4.89871 4.90932,7.7331 8.41085,-3.62762 3.63915,8.40588 8.87479,-2.26721 2.27938,8.87168 9.12019,-0.85098 0.86348,9.11903 9.14104,0.58621 -0.57369,9.14184 8.93679,2.00897 -1.99672,8.93954 8.51249,3.38225 -3.37059,8.51713 7.87859,4.67226 -4.66147,7.88499 7.05069,5.84722 -5.83756,7.05869 6.04917,6.87821 -6.86991,6.05859 4.89871,7.73983 -7.7331,4.90931 3.62762,8.41086 -8.40588,3.63914 2.26721,8.8748 -8.87168,2.27937 0.85097,9.1202 -9.11902,0.86347 -0.58622,9.14104 z"
     id="path4138"
     style="opacity:1;fill:#3d82ab;fill-opacity:1;stroke:#ffffff;stroke-width:1.9131875;stroke-linecap:butt;stroke-miterlimit:4;stroke-dasharray:none;stroke-dashoffset:0;stroke-opacity:1" />
  <circle
     r="76.527512"
     cy="573.5907"
     cx="899.58423"
     id="path4142"
     style="opacity:1;fill:#3d82ab;fill-opacity:1;stroke:#ffffff;stroke-width:1.9131875;stroke-linecap:butt;stroke-miterlimit:4;stroke-dasharray:none;stroke-dashoffset:0;stroke-opacity:1" />
  <path
     id="path4141"
     d="m 924.61572,502.24564 a 61.495318,64.228447 0 0 0 -11.40627,37.18104 61.495318,64.228447 0 0 0 58.64368,64.07963 76.527504,76.527504 0 0 0 5.58449,-28.54927 76.527504,76.527504 0 0 0 -52.8219,-72.7114 z"
     style="opacity:0.37700004;fill:#87cdde;fill-opacity:1;stroke:none;stroke-width:20;stroke-linecap:butt;stroke-miterlimit:4;stroke-dasharray:none;stroke-dashoffset:0;stroke-opacity:1" />
  <path
     id="path4142-1"
     d="m 825.74931,558.28484 a 53.569253,53.569253 0 0 0 -1.19294,0.042 76.527504,76.527504 0 0 0 -1.54045,15.26346 76.527504,76.527504 0 0 0 45.78852,70.03406 53.569253,53.569253 0 0 0 10.51412,-31.7703 53.569253,53.569253 0 0 0 -53.56925,-53.56926 z"
     style="opacity:0.57999998;fill:#87cdde;fill-opacity:1;stroke:none;stroke-width:2.79999995;stroke-linecap:butt;stroke-miterlimit:4;stroke-dasharray:none;stroke-dashoffset:0;stroke-opacity:1" />
  <g
     id="text4174"
     style="font-style:normal;font-weight:normal;font-size:40px;line-height:125%;font-family:sans-serif;letter-spacing:0px;word-spacing:0px;fill:#ffffff;fill-opacity:1;stroke:none;stroke-width:1px;stroke-linecap:butt;stroke-linejoin:miter;stroke-opacity:1"
     transform="matrix(-0.33392083,-0.3424395,0.3424395,-0.33392082,657.66185,524.49444)">
    <path
       id="path4183"
       style="font-style:normal;font-variant:normal;font-weight:normal;font-stretch:normal;font-family:Economica;-inkscape-font-specification:Economica;fill:#ffffff"
       d="m -300.61076,311.46364 c -2.11527,-0.14148 -2.11527,-0.14148 -2.2701,2.17334 l 27.37882,1.8313 c 1.8359,0.1228 1.8359,0.1228 1.99073,-2.19202 l -8.62074,-0.57662 1.31505,-2.87866 c 0.35772,-5.34805 -2.7899,-5.63876 -10.69224,-6.16733 -7.90234,-0.52857 -10.93556,-0.73145 -11.28527,4.49686 l 2.18375,3.31313 z m 1.50594,0.26109 -1.57709,-3.39282 c 0.20022,-2.99331 2.74917,-2.74264 9.45419,-2.29416 5.46778,0.36573 8.49833,0.60852 8.30613,3.4821 l -1.25659,3.20328 -0.98709,-0.22638 -12.93111,-0.86493 -1.00844,0.0929 z" />
    <path
       id="path4185"
       style="font-style:normal;font-variant:normal;font-weight:normal;font-stretch:normal;font-family:Economica;-inkscape-font-specification:Economica;fill:#ffffff"
       d="m -303.08377,328.56536 c -0.047,-1.6003 0.0785,-3.04372 0.408,-4.69109 0.63547,-3.17707 2.59663,-2.7848 8.08786,-1.68646 l 1.01196,0.0392 -1.40433,8.04074 2.14943,0.26675 c 5.6089,1.12188 8.70752,1.74166 9.60974,-2.76899 1.09049,-5.45201 -2.1258,-6.09533 -9.9312,-7.65654 -7.76617,-1.55338 -10.59023,-2.11824 -11.68073,3.33377 -0.3295,1.64737 -0.28246,3.04372 -0.25111,4.72247 l 2.00038,0.40011 z m 10.46476,-0.10964 1.11403,-5.56968 0.9492,0.35302 c 3.81248,0.72177 5.85208,1.12973 5.25584,4.11069 -0.40796,2.0396 -2.49463,1.86698 -6.26004,1.11383 l -1.05903,-0.008 z" />
    <path
       id="path4187"
       style="font-style:normal;font-variant:normal;font-weight:normal;font-stretch:normal;font-family:Economica;-inkscape-font-specification:Economica;fill:#ffffff"
       d="m -307.41849,334.59132 c -0.0126,0.038 -1.09344,3.30375 -1.09344,3.30375 15.45102,8.94798 17.8819,10.00533 18.41354,10.18128 0.75949,0.25137 0.86003,-0.0524 1.41303,-1.72329 l -16.32361,-8.85757 0.16339,-0.49367 16.52488,2.39343 c 1.84736,0.27435 1.87249,0.1984 2.57631,-1.92815 l -21.6741,-2.87578 z" />
    <path
       id="path4189"
       style="font-style:normal;font-variant:normal;font-weight:normal;font-stretch:normal;font-family:Economica;-inkscape-font-specification:Economica;fill:#ffffff"
       d="m -314.14165,352.24871 1.67125,0.76975 1.09252,-3.32818 c 1.22156,-2.65221 3.69211,-1.51431 9.39616,1.11288 5.81305,2.6774 7.99295,3.68143 6.77138,6.33363 l -0.66121,1.14874 c -0.63346,0.89728 -0.83668,1.81658 0.72557,2.53613 l 1.86122,-2.79798 c 2.19211,-4.75944 -0.60541,-6.04793 -7.7264,-9.32775 -7.22998,-3.33001 -10.10017,-4.65198 -12.29229,0.10746 l -0.8382,3.44532 z" />
    <path
       id="path4191"
       style="font-style:normal;font-variant:normal;font-weight:normal;font-stretch:normal;font-family:Economica;-inkscape-font-specification:Economica;fill:#ffffff"
       d="m -319.25407,363.72346 c -1.56346,-0.97015 -1.56346,-0.97015 -2.80778,1.03516 l 9.04088,5.61 c 6.72968,4.17586 9.44874,5.86308 12.02175,1.71651 l 0.746,-4.00922 6.0839,3.77514 c 1.56346,0.97016 1.56346,0.97016 2.7867,-1.00116 l -24.87942,-15.43805 c -1.24432,2.00531 -1.24432,2.00531 0.31914,2.97546 l 13.08548,8.11974 0.93407,0.3913 -0.87725,4.06901 c -1.32868,2.14126 -4.04775,0.45404 -8.94206,-2.58295 l -7.51141,-4.66094 z" />
    <path
       id="path4193"
       style="font-style:normal;font-variant:normal;font-weight:normal;font-stretch:normal;font-family:Economica;-inkscape-font-specification:Economica;fill:#ffffff"
       d="m -318.3235,382.75244 0.10141,-0.12376 c 2.23108,-2.72262 4.0995,-5.9493 1.25312,-8.28179 -6.96125,-5.70447 -7.7966,-6.38901 -9.92627,-3.79014 -0.91272,1.1138 -0.37087,2.85069 -0.56898,4.29151 -1.54695,-1.26766 -1.59765,-1.20578 -3.09349,0.61961 l 12.83964,10.52158 c 3.00107,2.45926 3.99112,3.27056 6.83068,-0.19459 l 2.00936,-3.5249 c -1.08287,-0.88736 -1.77255,-0.67681 -2.27962,-0.058 -0.10141,0.12376 -0.22259,0.33474 -0.31842,0.51479 l -0.95827,1.80048 c -1.24231,1.516 -1.64194,1.49881 -3.2817,0.15509 -0.18563,-0.15212 -0.37126,-0.30424 -0.5569,-0.45636 l -1.17568,-0.96342 -0.87488,-0.51007 z m -7.88082,-6.66488 c 0.34163,-1.42664 0.0361,-3.07329 0.97419,-4.21803 0.55777,-0.68066 0.60848,-0.74253 7.01283,4.50558 1.17568,0.96342 0.0374,2.66807 -1.63595,4.71004 l -0.10142,0.12375 -0.67206,-0.75758 -4.70271,-3.85369 -0.87488,-0.51007 z" />
    <path
       id="path4195"
       style="font-style:normal;font-variant:normal;font-weight:normal;font-stretch:normal;font-family:Economica;-inkscape-font-specification:Economica;fill:#ffffff"
       d="m -345.1756,391.70729 c -1.20834,-1.38762 -1.20834,-1.38762 -3.01829,0.18848 l 6.98739,8.02409 c 6.51455,7.48111 7.33277,8.35981 11.10349,5.07626 l 2.12446,-4.07767 c 1.12089,0.19081 2.82272,-0.23034 4.30084,-1.51749 l 1.74299,-3.48028 c 0.78805,0.90497 0.78805,0.90497 2.56783,-0.64486 l -12.89777,-14.81139 c -1.20834,-1.38763 -1.20834,-1.38763 -2.98812,0.16221 l 11.32167,13.00144 0.77737,0.64907 -1.91619,3.52503 c -2.2021,1.91759 -4.03208,-0.73209 -7.84489,-5.04969 l -5.83547,-6.64036 c -1.20835,-1.38763 -1.20835,-1.38763 -2.95796,0.13594 l 6.98738,8.02409 4.43936,5.09801 0.77737,0.64907 -1.9911,3.3781 c -2.0211,1.75998 -2.75272,0.8589 -7.87505,-5.02342 l -5.80531,-6.66663 z" />
    <path
       id="path4197"
       style="font-style:normal;font-variant:normal;font-weight:normal;font-stretch:normal;font-family:Economica;-inkscape-font-specification:Economica;fill:#ffffff"
       d="m -355.19616,388.92421 c -0.94791,-1.57704 -0.94791,-1.57704 -2.93635,-0.38185 l 4.92502,8.19376 -3.55346,-0.0109 c -4.45686,2.67888 -3.28846,5.47682 0.79168,12.26496 3.9359,6.54815 6.07153,9.32475 10.42554,6.70768 l 2.18629,-2.5742 c 0.41214,0.68567 0.44642,0.66507 2.40058,-0.50952 l -14.2393,-23.68991 z m 3.19736,9.51223 0.34375,0.96012 3.11163,5.17681 3.58558,5.96533 0.65231,0.77466 -2.15895,2.46442 c -2.50269,1.5043 -4.49407,-1.03231 -7.46145,-5.96914 -3.29709,-5.48536 -4.21127,-7.78273 -1.67429,-9.30763 l 3.60142,-0.0646 z" />
    <path
       id="path4199"
       style="font-style:normal;font-variant:normal;font-weight:normal;font-stretch:normal;font-family:Economica;-inkscape-font-specification:Economica;fill:#ffffff"
       d="m -356.347,425.28518 c -0.90616,0.42292 -1.31208,1.53936 -0.88915,2.44552 0.42293,0.90617 1.52245,1.27584 2.42861,0.85291 0.90616,-0.42293 1.36525,-1.52003 0.90607,-2.40928 -0.42293,-0.90616 -1.53936,-1.31208 -2.44553,-0.88915 z m -8.87919,-21.76732 c -0.77819,-1.66734 -0.77819,-1.66734 -2.91673,-0.66923 l 8.37397,17.94204 c 0.77818,1.66734 0.77818,1.66734 2.91673,0.66923 l -8.37397,-17.94204 z" />
    <path
       id="path4201"
       style="font-style:normal;font-variant:normal;font-weight:normal;font-stretch:normal;font-family:Economica;-inkscape-font-specification:Economica;fill:#ffffff"
       d="m -377.75691,406.54527 c -5.17876,1.79187 -4.09462,4.80288 -1.50491,12.28752 2.5897,7.48464 3.57065,10.31973 8.71162,8.54094 5.17876,-1.79186 4.21089,-4.58915 1.60811,-12.11159 -2.60279,-7.52244 -3.63605,-10.50874 -8.81482,-8.71687 z m 0.69321,2.00346 c 3.06189,-1.05942 3.83788,1.5503 6.03521,7.9009 1.97498,5.70798 2.69578,7.91353 -0.21492,8.92064 -3.0997,1.0725 -3.787,-1.52557 -6.08897,-8.17859 -1.87034,-5.40557 -2.56642,-7.662 0.26868,-8.64295 z" />
    <path
       id="path4203"
       style="font-style:normal;font-variant:normal;font-weight:normal;font-stretch:normal;font-family:Economica;-inkscape-font-specification:Economica;fill:#ffffff"
       d="m -395.18621,413.22483 c -0.35798,-1.80484 -0.35798,-1.80484 -2.67288,-1.34569 l 2.07007,10.43669 c 1.82104,9.18114 2.16346,10.90751 7.10715,9.92695 l 3.24327,-2.15212 c 0.23346,1.17707 0.23346,1.17707 2.54837,0.71792 l -3.82108,-19.26471 c -0.35798,-1.80484 -0.35798,-1.80484 -2.67288,-1.34569 l 3.35414,16.91057 0.3515,0.94976 -3.57272,2.13591 c -2.47185,0.49028 -2.70531,-0.68679 -4.21507,-8.29851 l -1.71987,-8.67108 z" />
    <path
       id="path4205"
       style="font-style:normal;font-variant:normal;font-weight:normal;font-stretch:normal;font-family:Economica;-inkscape-font-specification:Economica;fill:#ffffff"
       d="m -402.07785,412.8137 c -1.56984,-0.0958 -3.31264,-0.38054 -4.86918,-0.2768 -4.39026,0.29261 -4.31583,4.41679 -4.0977,7.68953 0.13832,2.0754 2.36269,3.57078 4.66954,5.10076 1.68158,1.17076 3.29398,2.50649 3.37911,3.78366 0.11438,1.71619 0.16225,3.03593 -2.55173,3.21681 l -1.65233,-0.1304 c -1.09091,-0.12774 -1.99557,0.133 -1.88119,1.84919 l 3.82883,0.30606 c 4.78938,-0.31921 4.63509,-2.63408 4.43293,-5.66735 -0.16759,-2.51442 -2.52766,-4.24129 -4.79194,-5.73402 -1.63635,-1.0936 -2.94542,-2.08874 -3.06248,-3.24352 -0.24209,-2.42927 0.005,-4.73083 1.92115,-4.85851 1.51664,-0.10109 3.29136,0.0613 4.81598,0.0799 l -0.14099,-2.11531 z" />
  </g>
  <rect
     y="0.60309911"
     x="0.3558996"
     height="257.18121"
     width="1051.6824"
     id="rect4270"
     style="opacity:1;fill:#3d82ab;fill-opacity:1;stroke:none;stroke-width:7.00484991;stroke-linecap:round;stroke-miterlimit:4;stroke-dasharray:none;stroke-dashoffset:0;stroke-opacity:1" />
  <text
     id="text4191"
     y="105.46738"
     x="430.6366"
     style="font-style:normal;font-weight:normal;font-size:26.244px;line-height:125%;font-family:sans-serif;letter-spacing:0px;word-spacing:0px;fill:#ffffff;fill-opacity:1;stroke:none;stroke-width:1px;stroke-linecap:butt;stroke-linejoin:miter;stroke-opacity:1"
     xml:space="preserve"><tspan
       style="font-style:normal;font-variant:normal;font-weight:bold;font-stretch:normal;font-size:59.049px;font-family:Economica;-inkscape-font-specification:'Economica Bold';fill:#ffffff"
       y="105.46738"
       x="430.6366"
       id="logo">devchampions</tspan></text>
  <path
     style="fill:#ffffff"
     d="m 391.49795,103.02844 c 2.16173,-10.44065 17.55643,-18.452 17.55643,-49.63666 l -44.03516,0 c 0,31.18466 15.39525,39.19601 17.55642,49.63666 l 8.92231,0 z m -13.24854,-34.60255 6.08809,-0.8409 2.68021,-5.52941 2.68095,5.52941 6.08754,0.8409 -4.43132,4.25768 1.08162,6.04937 -5.41879,-2.89867 -5.41934,2.89867 1.08235,-6.04937 -4.43131,-4.25768 z m -12.6452,12.33166 c 0.94133,2.29089 1.96161,4.36479 3.00096,6.26266 C 356.9293,82.11877 349.9662,70.43716 348.84549,58.09419 l 11.96199,0 c 0.0704,1.4007 0.16918,2.77693 0.30408,4.12519 l -7.40633,0 c 1.23967,5.81163 4.31734,13.55206 11.89898,18.53817 z m 34.99169,36.22154 0,4.39221 -27.11802,0 0,-4.39221 c 7.02295,0 8.87522,-5.89242 9.18393,-9.82526 0,0 8.45386,0 8.75034,0 0.30834,3.93284 1.95827,9.82526 9.18375,9.82526 z m 24.59402,-58.8849 c -1.11904,12.32518 -8.06397,23.99086 -19.70983,28.90489 1.04029,-1.90157 2.06149,-3.98011 3.00301,-6.276 7.54401,-4.98721 10.6102,-12.70542 11.84728,-18.5037 l -7.36798,0 c 0.13472,-1.34806 0.23366,-2.72449 0.3039,-4.12519 l 11.92363,0 z"
     id="trophy-7-icon" />
  <path
     id="path4206"
     d="m 434.89208,114.91455 59.577,0"
     style="fill:#002255;fill-opacity:1;fill-rule:evenodd;stroke:#216778;stroke-width:5.2487998;stroke-linecap:round;stroke-linejoin:miter;stroke-miterlimit:4;stroke-dasharray:none;stroke-opacity:1" />
  <text
     id="text4214"
     y="693.59601"
     x="49.804413"
     style="font-style:normal;font-weight:normal;font-size:40px;line-height:125%;font-family:sans-serif;letter-spacing:0px;word-spacing:0px;fill:#d7f4e3;fill-opacity:1;stroke:none;stroke-width:1px;stroke-linecap:butt;stroke-linejoin:miter;stroke-opacity:1"
     xml:space="preserve"><tspan
       style="font-style:normal;font-variant:normal;font-weight:normal;font-stretch:normal;font-family:Economica;-inkscape-font-specification:Economica;fill:#d7f4e3"
       y="693.59601"
       x="49.804413"
       id="cert-url">http://certs.devchampions.com/RWE3SDAS</tspan></text>
  <text
     id="text4218"
     y="330.60184"
     x="126.63776"
     style="font-style:normal;font-weight:normal;font-size:35px;line-height:125%;font-family:sans-serif;letter-spacing:0px;word-spacing:0px;fill:#000000;fill-opacity:1;stroke:none;stroke-width:1px;stroke-linecap:butt;stroke-linejoin:miter;stroke-opacity:1"
     xml:space="preserve"><tspan
       style="font-style:normal;font-variant:normal;font-weight:normal;font-stretch:normal;font-size:30px;font-family:Economica;-inkscape-font-specification:Economica"
       y="330.60184"
       x="126.63776"
       id="tspan4220">This certifies that</tspan></text>
  <text
     id="text4218-2"
     y="330.04404"
     x="731.1488"
     style="font-style:normal;font-weight:normal;font-size:40px;line-height:125%;font-family:sans-serif;letter-spacing:0px;word-spacing:0px;fill:#000000;fill-opacity:1;stroke:none;stroke-width:1px;stroke-linecap:butt;stroke-linejoin:miter;stroke-opacity:1"
     xml:space="preserve"><tspan
       style="font-style:normal;font-variant:normal;font-weight:normal;font-stretch:normal;font-size:30px;font-family:Economica;-inkscape-font-specification:Economica"
       y="330.04404"
       x="731.1488"
       id="tspan4220-3">has successfully completed </tspan></text>
  <path
     id="path4240"
     d="m 78.694418,334.17429 909.668982,0"
     style="fill:none;fill-rule:evenodd;stroke:#000000;stroke-width:2;stroke-linecap:round;stroke-linejoin:miter;stroke-miterlimit:4;stroke-dasharray:none;stroke-opacity:1" />
  <text
     id="text4195-0"
     y="397.21457"
     x="390.49277"
     style="font-style:italic;font-variant:normal;font-weight:bold;font-stretch:normal;font-size:60px;line-height:125%;font-family:Economica;-inkscape-font-specification:'Economica Bold Italic';letter-spacing:0px;word-spacing:0px;fill:#000000;fill-opacity:1;stroke:none;stroke-width:1px;stroke-linecap:butt;stroke-linejoin:miter;stroke-opacity:1"
     xml:space="preserve"><tspan
       style="font-style:italic;font-variant:normal;font-weight:bold;font-stretch:normal;font-size:45px;font-family:Economica;-inkscape-font-specification:'Economica Bold Italic'"
       y="397.21457"
       x="390.49277"
       id="tspan4197-0">Principal Developer</tspan></text>
  <text
     id="cert-name-box"
     y="332.21249"
     x="518.67468"
     style="font-style:normal;font-weight:normal;font-size:60px;line-height:125%;font-family:sans-serif;text-align:center;letter-spacing:0px;word-spacing:0px;text-anchor:middle;fill:#000000;fill-opacity:1;stroke:none;stroke-width:1px;stroke-linecap:butt;stroke-linejoin:miter;stroke-opacity:1"
     xml:space="preserve"><tspan
       style="font-style:italic;font-variant:normal;font-weight:bold;font-stretch:normal;font-family:Economica;-inkscape-font-specification:'Economica Bold Italic'"
       y="332.21249"
       x="518.67468"
       id="cert-name">Martins Dukurs</tspan></text>
  <text
     id="text4266"
     y="464.08401"
     x="216.55035"
     style="font-style:normal;font-weight:normal;font-size:40px;line-height:125%;font-family:sans-serif;letter-spacing:0px;word-spacing:0px;fill:#000000;fill-opacity:1;stroke:none;stroke-width:1px;stroke-linecap:butt;stroke-linejoin:miter;stroke-opacity:1"
     xml:space="preserve"><tspan
       style="font-style:normal;font-variant:normal;font-weight:normal;font-stretch:normal;font-family:Economica;-inkscape-font-specification:Economica"
       y="464.08401"
       x="216.55035"
       id="tspan4268">on: 2021.05.20              online                length: 2 days</tspan></text>
  <path
     id="path4240-9"
     d="m 78.694424,401.3128 909.668976,0"
     style="fill:none;fill-rule:evenodd;stroke:#000000;stroke-width:2;stroke-linecap:round;stroke-linejoin:miter;stroke-miterlimit:4;stroke-dasharray:none;stroke-opacity:1" />
  <path
     id="path4240-9-4"
     d="m 78.616204,468.45127 909.669006,0"
     style="fill:none;fill-rule:evenodd;stroke:#000000;stroke-width:2;stroke-linecap:round;stroke-linejoin:miter;stroke-miterlimit:4;stroke-dasharray:none;stroke-opacity:1" />
  <path
     id="path4240-9-4-0"
     d="m 78.616204,538.17279 651.861516,0"
     style="fill:none;fill-rule:evenodd;stroke:#000000;stroke-width:2;stroke-linecap:round;stroke-linejoin:miter;stroke-miterlimit:4;stroke-dasharray:none;stroke-opacity:1" />
  <text
     id="text4266-1"
     y="534.21997"
     x="316.24777"
     style="font-style:normal;font-weight:normal;font-size:40px;line-height:125%;font-family:sans-serif;letter-spacing:0px;word-spacing:0px;fill:#000000;fill-opacity:1;stroke:none;stroke-width:1px;stroke-linecap:butt;stroke-linejoin:miter;stroke-opacity:1"
     xml:space="preserve"><tspan
       style="font-style:normal;font-variant:normal;font-weight:normal;font-stretch:normal;font-family:Economica;-inkscape-font-specification:Economica"
       y="534.21997"
       x="316.24777"
       id="tspan4268-6">trainer: Eduards Sizovs</tspan></text>
  <text
     id="text4190"
     y="453.85837"
     x="406.9791"
     style="font-style:normal;font-weight:normal;font-size:40px;line-height:125%;font-family:sans-serif;letter-spacing:0px;word-spacing:0px;fill:#000000;fill-opacity:1;stroke:none;stroke-width:1px;stroke-linecap:butt;stroke-linejoin:miter;stroke-opacity:1"
     xml:space="preserve"><tspan
       y="453.85837"
       x="406.9791"
       id="tspan4192" /></text>
  <text
     id="text4218-6"
     y="397.93759"
     x="805.56775"
     style="font-style:normal;font-weight:normal;font-size:35px;line-height:125%;font-family:sans-serif;letter-spacing:0px;word-spacing:0px;fill:#000000;fill-opacity:1;stroke:none;stroke-width:1px;stroke-linecap:butt;stroke-linejoin:miter;stroke-opacity:1"
     xml:space="preserve"><tspan
       style="font-style:normal;font-variant:normal;font-weight:normal;font-stretch:normal;font-size:30px;font-family:Economica;-inkscape-font-specification:Economica"
       y="397.93759"
       x="805.56775"
       id="tspan4220-8">training</tspan></text>
  <text
     id="text4195"
     y="208.43083"
     x="231.17361"
     style="font-style:normal;font-weight:normal;font-size:80px;line-height:125%;font-family:sans-serif;letter-spacing:0px;word-spacing:0px;fill:#ffffff;fill-opacity:1;stroke:none;stroke-width:1px;stroke-linecap:butt;stroke-linejoin:miter;stroke-opacity:1"
     xml:space="preserve"><tspan
       style="font-style:normal;font-variant:normal;font-weight:normal;font-stretch:normal;font-size:80px;font-family:Economica;-inkscape-font-specification:Economica;fill:#ffffff"
       y="208.43083"
       x="231.17361"
       id="tspan4197">Certificate of Attendance</tspan></text>
  <g
     style="fill:#ffffff;stroke:none"
     transform="translate(0,-308.26772)"
     id="text4135-9" />
  <path
     id="path892"
     style="fill:#ffffff;fill-opacity:1;stroke:none;stroke-width:0.81"
     d="M 918.36914 581.62109 L 913.12109 581.97656 L 913.12109 605.33789 L 913.83398 605.33789 C 915.00038 605.33789 915.6806 605.26057 915.875 605.10938 C 916.0694 604.93657 916.16602 604.35493 916.16602 603.36133 L 916.16602 594.77539 L 918.40234 594.77539 C 920.54074 594.77539 922.00939 594.49324 922.80859 593.93164 C 923.26219 593.62924 923.61775 593.32779 923.87695 593.02539 C 924.13615 592.72299 924.31973 592.26886 924.42773 591.66406 C 924.55731 591.05926 924.63463 590.55102 924.65625 590.14062 C 924.67787 589.70862 924.6875 589.08252 924.6875 588.26172 C 924.6875 587.41932 924.65463 586.58838 924.58984 585.76758 C 924.56825 585.29238 924.51413 584.94647 924.42773 584.73047 C 924.36293 584.49287 924.25667 584.20107 924.10547 583.85547 C 923.97587 583.48827 923.80194 583.21968 923.58594 583.04688 C 923.39153 582.87407 923.1442 582.67889 922.8418 582.46289 C 922.021 581.90129 920.52914 581.62109 918.36914 581.62109 z M 1002.1582 582.00977 L 1002.1582 603.52344 C 1002.1582 604.49544 1002.2761 605.06743 1002.5137 605.24023 C 1002.7513 605.39143 1003.5938 605.4668 1005.041 605.4668 L 1005.041 583.98633 C 1005.041 582.99273 1004.9115 582.41878 1004.6523 582.26758 C 1004.4147 582.09478 1003.5838 582.00977 1002.1582 582.00977 z M 939.64648 582.39844 C 939.12808 582.39844 938.67396 582.58202 938.28516 582.94922 C 937.89636 583.31642 937.70117 583.76859 937.70117 584.30859 C 937.70117 584.82699 937.89636 585.29273 938.28516 585.70312 C 938.67396 586.09193 939.12808 586.28516 939.64648 586.28516 C 940.16488 586.28516 940.61706 586.09193 941.00586 585.70312 C 941.39466 585.29273 941.58984 584.82699 941.58984 584.30859 C 941.58984 583.76859 941.39466 583.31642 941.00586 582.94922 C 940.61706 582.58202 940.16488 582.39844 939.64648 582.39844 z M 971.34961 582.39844 C 970.83121 582.39844 970.37708 582.58202 969.98828 582.94922 C 969.59948 583.31642 969.40625 583.76859 969.40625 584.30859 C 969.40625 584.82699 969.59948 585.29273 969.98828 585.70312 C 970.37708 586.09193 970.83121 586.28516 971.34961 586.28516 C 971.86801 586.28516 972.32214 586.09193 972.71094 585.70312 C 973.09974 585.29273 973.29297 584.82699 973.29297 584.30859 C 973.29297 583.76859 973.09974 583.31642 972.71094 582.94922 C 972.32214 582.58202 971.86801 582.39844 971.34961 582.39844 z M 915.9082 584.50391 L 918.40234 584.50391 C 919.46074 584.50391 920.28203 584.67588 920.86523 585.02148 C 921.08123 585.15108 921.23196 585.41198 921.31836 585.80078 C 921.42634 586.16798 921.4901 586.50229 921.51172 586.80469 C 921.53334 587.08549 921.54492 587.56087 921.54492 588.23047 C 921.54492 588.87847 921.53334 589.35385 921.51172 589.65625 C 921.44692 590.58505 921.23243 591.15705 920.86523 591.37305 C 920.28203 591.71865 919.46074 591.89062 918.40234 591.89062 L 915.9082 591.89062 L 916.16602 591.14648 L 916.16602 585.31445 L 915.9082 584.50391 z M 933.00781 587.71094 L 930.93359 588.94336 C 930.93359 588.44656 930.81572 588.15476 930.57812 588.06836 C 930.34052 587.98196 929.50958 587.9375 928.08398 587.9375 L 928.08398 603.39258 C 928.08398 604.36458 928.20185 604.93657 928.43945 605.10938 C 928.69865 605.26057 929.5528 605.33789 931 605.33789 L 931 592.2793 L 930.67578 591.37305 L 933.33203 590.46484 C 934.26083 590.46484 934.81157 590.35663 934.98438 590.14062 C 935.15718 589.90302 935.24414 589.1687 935.24414 587.9375 L 934.72461 587.90625 C 934.20621 587.77665 933.63422 587.71094 933.00781 587.71094 z M 950.45117 587.71094 L 948.05273 588.61914 C 948.03113 588.29512 947.85915 588.09994 947.53516 588.03516 C 947.21115 587.97037 946.42272 587.9375 945.16992 587.9375 L 945.16992 603.39258 C 945.16992 604.36458 945.28779 604.93657 945.52539 605.10938 C 945.76299 605.26057 946.60553 605.33789 948.05273 605.33789 L 948.05273 592.24805 L 947.76172 591.33984 L 950.74219 590.46484 C 951.67099 590.50804 952.17922 590.98342 952.26562 591.89062 C 952.30879 592.32263 952.33008 592.97194 952.33008 593.83594 L 952.29688 596.68555 L 952.29688 603.39258 C 952.29687 604.36458 952.41669 604.93657 952.6543 605.10938 C 952.9135 605.26057 953.76569 605.33789 955.21289 605.33789 L 955.21289 596.71875 C 955.21289 594.58035 955.18002 592.98223 955.11523 591.92383 C 955.05042 591.18943 954.98666 590.65993 954.92188 590.33594 C 954.85707 589.99034 954.73725 589.62318 954.56445 589.23438 C 954.39165 588.82397 954.19842 588.55343 953.98242 588.42383 C 953.76642 588.29423 953.45337 588.1435 953.04297 587.9707 C 952.63257 587.7979 951.76877 587.71094 950.45117 587.71094 z M 963.12109 587.71094 C 962.25709 587.71094 961.40295 587.84041 960.56055 588.09961 C 960.21495 588.18601 959.92314 588.35994 959.68555 588.61914 C 959.44794 588.87834 959.24311 589.10442 959.07031 589.29883 C 958.91912 589.47163 958.78964 589.79628 958.68164 590.27148 C 958.57364 590.74668 958.47703 591.22207 958.39062 591.69727 C 958.30422 592.15086 958.25977 593.11128 958.25977 594.58008 L 958.25977 598.59766 C 958.25977 599.00806 958.27135 599.57041 958.29297 600.2832 C 958.3362 600.9744 958.37871 601.47104 958.42188 601.77344 C 958.48668 602.07584 958.57364 602.46425 958.68164 602.93945 C 958.78964 603.41465 958.91912 603.74896 959.07031 603.94336 C 959.24311 604.13776 959.44794 604.37545 959.68555 604.65625 C 959.92314 604.91545 960.20529 605.09903 960.5293 605.20703 C 960.8749 605.29345 961.25171 605.36881 961.66211 605.43359 C 962.09411 605.51999 962.56949 605.56445 963.08789 605.56445 C 963.62789 605.56445 964.30811 605.43498 965.12891 605.17578 C 965.94971 604.89494 966.45795 604.73262 966.65234 604.68945 L 966.65234 602.16211 C 966.34994 602.20531 965.97117 602.29227 965.51758 602.42188 C 965.06397 602.52988 964.64271 602.62649 964.25391 602.71289 C 963.88671 602.77767 963.47704 602.81055 963.02344 602.81055 C 962.59144 602.81055 962.23587 602.71197 961.95508 602.51758 C 961.69588 602.32317 961.50069 601.91351 961.37109 601.28711 C 961.26311 600.63911 961.1974 600.03426 961.17578 599.47266 C 961.15416 598.88945 961.14453 597.91744 961.14453 596.55664 C 961.14453 595.19584 961.15416 594.23543 961.17578 593.67383 C 961.19738 593.11223 961.26309 592.52863 961.37109 591.92383 C 961.50069 591.29743 961.69588 590.89741 961.95508 590.72461 C 962.23587 590.55181 962.62429 590.46484 963.12109 590.46484 L 964.35156 590.69141 C 964.80516 590.75619 965.19357 590.78906 965.51758 590.78906 C 965.84157 590.78906 966.09087 590.7137 966.26367 590.5625 C 966.43647 590.4113 966.60845 589.71948 966.78125 588.48828 L 963.12109 587.71094 z M 982.21875 587.71094 L 979.85352 588.68359 C 979.85352 588.31638 979.73564 588.09994 979.49805 588.03516 C 979.26044 587.97037 978.43915 587.9375 977.03516 587.9375 L 977.03516 609.45117 C 977.03516 610.42317 977.15303 610.98552 977.39062 611.13672 C 977.62823 611.30952 978.46112 611.39648 979.88672 611.39648 L 979.88672 604.42969 L 982.1543 605.56445 C 983.47189 605.56445 984.42266 605.40213 985.00586 605.07812 C 985.35146 604.86212 985.63166 604.66694 985.84766 604.49414 C 986.08525 604.29974 986.28044 603.97704 986.43164 603.52344 C 986.60444 603.06984 986.75517 602.60411 986.88477 602.12891 C 987.01437 601.6321 987.07812 599.82915 987.07812 596.71875 L 987.07812 594.77539 C 987.07813 594.36499 987.05684 593.81425 987.01367 593.12305 C 986.99205 592.43185 986.94955 591.93521 986.88477 591.63281 C 986.84157 591.33041 986.76621 590.94004 986.6582 590.46484 C 986.55021 589.96804 986.40913 589.62213 986.23633 589.42773 C 986.08512 589.21173 985.88029 588.9644 985.62109 588.68359 C 985.3835 588.4028 985.1033 588.20761 984.7793 588.09961 C 983.8721 587.84041 983.01795 587.71094 982.21875 587.71094 z M 994.5332 587.71094 L 990.77539 588.45703 C 990.94819 589.68823 991.12017 590.38005 991.29297 590.53125 C 991.46577 590.68245 991.71507 590.75781 992.03906 590.75781 C 992.36307 590.75781 992.75148 590.72494 993.20508 590.66016 L 994.95508 590.43359 C 995.14948 590.45514 995.30985 590.44356 995.43945 590.40039 C 995.59065 590.35716 995.71047 590.37844 995.79688 590.46484 C 995.8833 590.52963 995.95866 590.57409 996.02344 590.5957 C 996.08822 590.6173 996.12109 590.77963 996.12109 591.08203 L 996.08789 591.95508 L 996.08789 592.73438 L 996.34766 593.51172 C 992.09245 593.59812 989.96484 594.86194 989.96484 597.30273 L 989.96484 599.53711 C 989.96484 601.61071 990.01895 602.98275 990.12695 603.65234 C 990.21335 604.21394 990.30032 604.58111 990.38672 604.75391 C 990.49472 604.92671 990.68795 605.09868 990.96875 605.27148 C 991.27115 605.44428 991.56295 605.53125 991.84375 605.53125 C 992.14615 605.55287 992.60028 605.56445 993.20508 605.56445 L 995.89453 604.20312 C 995.91613 604.69992 996.08811 605.01298 996.41211 605.14258 C 996.73611 605.27218 997.52454 605.33789 998.77734 605.33789 L 998.77734 592.18359 C 998.77734 590.97399 998.72323 590.08699 998.61523 589.52539 C 998.55043 589.07179 998.43257 588.77034 998.25977 588.61914 C 998.08697 588.46794 997.80482 588.28436 997.41602 588.06836 C 997.02722 587.83076 996.0668 587.71094 994.5332 587.71094 z M 938.2207 587.9375 L 938.2207 603.52344 C 938.2207 604.49544 938.33857 605.06743 938.57617 605.24023 C 938.81377 605.39143 939.65631 605.4668 941.10352 605.4668 L 941.10352 589.88281 C 941.10352 588.91081 940.98565 588.34846 940.74805 588.19727 C 940.51045 588.02447 939.66791 587.9375 938.2207 587.9375 z M 969.92383 587.9375 L 969.92383 603.52344 C 969.92383 604.49544 970.04365 605.06743 970.28125 605.24023 C 970.51885 605.39143 971.36139 605.4668 972.80859 605.4668 L 972.80859 589.88281 C 972.80859 588.91081 972.68878 588.34846 972.45117 588.19727 C 972.21358 588.02447 971.37103 587.9375 969.92383 587.9375 z M 982.34766 590.46484 C 983.16846 590.52964 983.6767 591.00502 983.87109 591.89062 C 984.0655 592.77622 984.16211 594.4188 984.16211 596.81641 C 984.16211 599.19241 984.0655 600.77893 983.87109 601.57812 C 983.6767 602.37731 983.1472 602.78893 982.2832 602.81055 L 979.5625 601.70898 L 979.91797 600.70312 L 979.91797 591.95508 L 979.62695 591.08203 L 982.34766 590.46484 z M 996.21875 596.03906 L 995.95898 596.7832 L 995.95898 600.63867 L 996.2832 601.57812 C 994.12322 602.39893 993.03138 602.81055 993.00977 602.81055 C 992.90177 602.81055 992.84766 602.26945 992.84766 601.18945 L 992.88086 596.91406 C 992.88086 596.65486 993.21516 596.44807 993.88477 596.29688 C 994.55436 596.14569 995.33315 596.06068 996.21875 596.03906 z M 913.70898 624.26367 L 907.55273 624.58789 L 907.55273 647.98047 L 913.70898 648.20703 C 914.87538 648.20703 915.91116 647.95969 916.81836 647.46289 C 917.18556 647.26849 917.51022 646.96509 917.79102 646.55469 C 918.09342 646.12269 918.34075 645.73427 918.53516 645.38867 C 918.72955 645.04307 918.89188 644.54644 919.02148 643.89844 C 919.15108 643.22884 919.2709 642.53702 919.37891 641.82422 C 919.4869 641.08982 919.54102 639.92457 919.54102 638.32617 L 919.54102 635.53906 C 919.54102 634.17827 919.51777 633.08838 919.47461 632.26758 C 919.45301 631.42517 919.34675 630.38745 919.15234 629.15625 L 919.15039 629.15625 C 918.95599 627.90345 918.66614 626.99715 918.27734 626.43555 C 917.88854 625.87395 917.30494 625.37731 916.52734 624.94531 C 915.77134 624.49171 914.83218 624.26367 913.70898 624.26367 z M 959.50586 624.65234 L 959.50586 646.16602 C 959.50586 647.13802 959.62568 647.71197 959.86328 647.88477 C 960.10088 648.03596 960.94343 648.11133 962.39062 648.11133 L 962.39062 626.62891 C 962.39062 625.63531 962.2592 625.06331 962 624.91211 C 961.7624 624.73931 960.93146 624.65234 959.50586 624.65234 z M 910.37109 627.14844 L 913.70898 627.14844 C 914.42179 627.14844 914.94932 627.39578 915.29492 627.89258 C 915.48932 628.15178 915.65165 628.41072 915.78125 628.66992 C 915.93247 628.90753 916.04069 629.28629 916.10547 629.80469 C 916.19189 630.30148 916.26725 630.79812 916.33203 631.29492 C 916.41843 631.77012 916.46289 632.76339 916.46289 634.27539 L 916.46289 638.00195 C 916.46289 638.41236 916.45131 638.9747 916.42969 639.6875 C 916.40807 640.3787 916.36556 640.90623 916.30078 641.27344 C 916.25758 641.64063 916.19187 642.08512 916.10547 642.60352 C 916.04067 643.12192 915.93245 643.51033 915.78125 643.76953 C 915.65165 644.02873 915.48932 644.29732 915.29492 644.57812 C 914.94932 645.07492 914.42179 645.32422 913.70898 645.32422 L 910.33789 645.32422 L 910.63086 644.51367 L 910.63086 627.95703 L 910.37109 627.14844 z M 927.7207 630.35547 C 926.9215 630.35547 926.01324 630.46369 924.99805 630.67969 C 924.67404 630.76609 924.38225 630.93807 924.12305 631.19727 C 923.88545 631.43487 923.68061 631.65131 923.50781 631.8457 C 923.33501 632.0185 923.19589 632.33155 923.08789 632.78516 C 922.97989 633.21716 922.88132 633.62878 922.79492 634.01758 C 922.70852 634.38477 922.66602 635.33358 922.66602 636.86719 L 922.66602 638.55273 L 922.66602 641.20898 C 922.66602 642.24578 922.70852 643.22941 922.79492 644.1582 C 922.85972 644.8494 922.95829 645.36729 923.08789 645.71289 C 923.21749 646.03689 923.40107 646.39245 923.63867 646.78125 C 923.87627 647.17005 924.17772 647.4522 924.54492 647.625 C 924.91212 647.7762 925.34499 647.90567 925.8418 648.01367 C 926.3602 648.14327 927.04042 648.20703 927.88281 648.20703 C 928.72522 648.20703 930.14941 648.02345 932.1582 647.65625 L 932.1582 645.12891 C 930.6462 645.34491 929.1563 645.45312 927.6875 645.45312 C 926.6723 645.45313 926.0578 645.16132 925.8418 644.57812 C 925.64739 643.97332 925.54883 642.60325 925.54883 640.46484 L 925.29102 639.71875 L 932.35352 639.55664 L 932.25586 637.35352 C 932.25586 635.64712 932.11674 634.26543 931.83594 633.20703 C 931.66314 632.53743 931.41384 632.01955 931.08984 631.65234 C 930.78744 631.28515 930.34492 630.98174 929.76172 630.74414 C 929.20012 630.48494 928.5199 630.35547 927.7207 630.35547 z M 951.83008 630.35547 C 951.03088 630.35547 950.12458 630.46369 949.10938 630.67969 C 948.78538 630.76609 948.49358 630.93807 948.23438 631.19727 C 947.99677 631.43487 947.79194 631.65131 947.61914 631.8457 C 947.44634 632.0185 947.30526 632.33155 947.19727 632.78516 C 947.08926 633.21716 946.99265 633.62878 946.90625 634.01758 C 946.81985 634.38477 946.77539 635.33358 946.77539 636.86719 L 946.77539 638.55273 L 946.77539 641.20898 C 946.77539 642.24578 946.81985 643.22941 946.90625 644.1582 C 946.97105 644.8494 947.06767 645.36729 947.19727 645.71289 C 947.32687 646.03689 947.51045 646.39245 947.74805 646.78125 C 947.98565 647.17005 948.2871 647.4522 948.6543 647.625 C 949.0215 647.7762 949.45438 647.90567 949.95117 648.01367 C 950.46957 648.14327 951.14978 648.20703 951.99219 648.20703 C 952.83458 648.20703 954.26073 648.02345 956.26953 647.65625 L 956.26953 645.12891 C 954.75753 645.34491 953.26763 645.45312 951.79883 645.45312 C 950.78362 645.45313 950.16717 645.16132 949.95117 644.57812 C 949.75678 643.97332 949.66016 642.60325 949.66016 640.46484 L 949.40039 639.71875 L 956.46289 639.55664 L 956.36719 637.35352 C 956.36719 635.64712 956.22611 634.26543 955.94531 633.20703 C 955.77251 632.53743 955.52322 632.01955 955.19922 631.65234 C 954.89682 631.28515 954.45429 630.98174 953.87109 630.74414 C 953.30949 630.48494 952.62928 630.35547 951.83008 630.35547 z M 970.40039 630.35547 C 969.36359 630.35547 968.57515 630.46369 968.03516 630.67969 C 967.71115 630.80929 967.429 630.92715 967.19141 631.03516 C 966.9538 631.14315 966.73932 631.33834 966.54492 631.61914 C 966.37212 631.89994 966.21944 632.14728 966.08984 632.36328 C 965.98184 632.55768 965.88523 632.88234 965.79883 633.33594 C 965.71241 633.76794 965.63705 634.21046 965.57227 634.66406 C 965.50748 635.11766 965.47461 636.01432 965.47461 637.35352 L 965.47461 639.36328 C 965.47461 640.76728 965.50748 642.08521 965.57227 643.31641 C 965.59386 644.05081 965.64797 644.57834 965.73438 644.90234 C 965.82078 645.22634 965.93864 645.62636 966.08984 646.10156 C 966.26264 646.55517 966.46748 646.87982 966.70508 647.07422 C 966.94268 647.26862 967.23448 647.47345 967.58008 647.68945 C 967.94727 647.90547 968.3589 648.04655 968.8125 648.11133 C 969.2877 648.17611 969.95631 648.20703 970.82031 648.20703 C 971.68431 648.20703 972.37613 648.08917 972.89453 647.85156 C 973.21853 647.72196 973.49872 647.60214 973.73633 647.49414 C 973.99553 647.36454 974.21197 647.15971 974.38477 646.87891 C 974.57916 646.57651 974.72989 646.32916 974.83789 646.13477 C 974.96749 645.91877 975.07571 645.58251 975.16211 645.12891 C 975.24852 644.67531 975.32389 644.22313 975.38867 643.76953 C 975.45345 643.31593 975.48633 642.39803 975.48633 641.01562 L 975.48633 638.58594 C 975.48633 637.39794 975.46504 636.45683 975.42188 635.76562 C 975.40027 635.07442 975.31331 634.28599 975.16211 633.40039 C 975.01091 632.49319 974.75196 631.88834 974.38477 631.58594 C 974.03917 631.26194 973.54253 630.98174 972.89453 630.74414 C 972.26813 630.48494 971.43719 630.35547 970.40039 630.35547 z M 984.05469 630.35547 L 981.68945 631.32812 C 981.68945 630.96091 981.56963 630.74447 981.33203 630.67969 C 981.09443 630.61491 980.27509 630.58203 978.87109 630.58203 L 978.87109 652.0957 C 978.87109 653.0677 978.98897 653.63005 979.22656 653.78125 C 979.46417 653.95405 980.2951 654.03906 981.7207 654.03906 L 981.7207 647.07422 L 983.99023 648.20703 C 985.30783 648.20703 986.25664 648.04666 986.83984 647.72266 C 987.18544 647.50666 987.46759 647.31147 987.68359 647.13867 C 987.92119 646.94428 988.11442 646.61962 988.26562 646.16602 C 988.43843 645.71242 988.5911 645.24864 988.7207 644.77344 C 988.8503 644.27663 988.91406 642.47368 988.91406 639.36328 L 988.91406 637.41797 C 988.91406 637.00757 988.89277 636.45683 988.84961 635.76562 C 988.82799 635.07442 988.78549 634.57779 988.7207 634.27539 C 988.6775 633.97299 988.60019 633.58458 988.49219 633.10938 C 988.38419 632.61257 988.24507 632.26666 988.07227 632.07227 C 987.92106 631.85627 987.71623 631.60893 987.45703 631.32812 C 987.21943 631.04733 986.93728 630.85214 986.61328 630.74414 C 985.70608 630.48494 984.85388 630.35547 984.05469 630.35547 z M 996.88672 630.35547 C 996.08752 630.35547 995.17927 630.46369 994.16406 630.67969 C 993.84007 630.76609 993.55022 630.93807 993.29102 631.19727 C 993.05341 631.43487 992.84663 631.65131 992.67383 631.8457 C 992.50103 632.0185 992.3619 632.33155 992.25391 632.78516 C 992.1459 633.21716 992.04734 633.62878 991.96094 634.01758 C 991.87454 634.38477 991.83203 635.33358 991.83203 636.86719 L 991.83203 638.55273 L 991.83203 641.20898 C 991.83203 642.24578 991.87454 643.22941 991.96094 644.1582 C 992.02574 644.8494 992.12431 645.36729 992.25391 645.71289 C 992.38351 646.03689 992.56709 646.39245 992.80469 646.78125 C 993.04229 647.17005 993.34374 647.4522 993.71094 647.625 C 994.07814 647.7762 994.51102 647.90567 995.00781 648.01367 C 995.52621 648.14327 996.20642 648.20703 997.04883 648.20703 C 997.89122 648.20703 999.31737 648.02345 1001.3262 647.65625 L 1001.3262 645.12891 C 999.81417 645.34491 998.32232 645.45312 996.85352 645.45312 C 995.83831 645.45313 995.22381 645.16132 995.00781 644.57812 C 994.81342 643.97332 994.71484 642.60325 994.71484 640.46484 L 994.45703 639.71875 L 1001.5195 639.55664 L 1001.4219 637.35352 C 1001.4219 635.64712 1001.2827 634.26543 1001.002 633.20703 C 1000.8292 632.53743 1000.5799 632.01955 1000.2559 631.65234 C 999.95346 631.28515 999.51093 630.98174 998.92773 630.74414 C 998.36613 630.48494 997.68592 630.35547 996.88672 630.35547 z M 1009.3242 630.35547 L 1007.252 631.58594 C 1007.252 631.08914 1007.1321 630.79734 1006.8945 630.71094 C 1006.6569 630.62454 1005.826 630.58203 1004.4004 630.58203 L 1004.4004 646.03711 C 1004.4004 647.00911 1004.5183 647.58111 1004.7559 647.75391 C 1005.0151 647.9051 1005.8692 647.98047 1007.3164 647.98047 L 1007.3164 634.92383 L 1006.9922 634.01758 L 1009.6484 633.10938 C 1010.5772 633.10937 1011.128 633.00116 1011.3008 632.78516 C 1011.4736 632.54755 1011.5605 631.81323 1011.5605 630.58203 L 1011.043 630.55078 C 1010.5246 630.42118 1009.9506 630.35547 1009.3242 630.35547 z M 934.09961 630.58203 L 937.66406 647.98047 L 941.25977 647.98047 L 944.37109 632.6875 C 944.50068 632.0827 944.57604 631.69428 944.59766 631.52148 C 944.61927 631.47828 944.63086 631.40292 944.63086 631.29492 C 944.63086 631.18692 944.57675 631.06905 944.46875 630.93945 C 944.27435 630.70186 943.44146 630.58203 941.97266 630.58203 L 939.57617 644.125 L 939.47852 644.125 L 937.30664 632.42969 C 937.17704 631.82489 937.03792 631.41327 936.88672 631.19727 C 936.75712 630.98127 936.49818 630.83054 936.10938 630.74414 C 935.72057 630.63614 935.05001 630.58203 934.09961 630.58203 z M 927.55859 633.10938 C 928.33619 633.10938 928.82122 633.33547 929.01562 633.78906 C 929.2316 634.22106 929.35143 635.0327 929.37305 636.2207 L 929.69727 636.93359 L 925.45312 636.93359 L 925.71094 636.2207 C 925.71094 634.9247 925.81916 634.08216 926.03516 633.69336 C 926.27275 633.30456 926.78099 633.10938 927.55859 633.10938 z M 951.66797 633.10938 C 952.44557 633.10938 952.93256 633.33547 953.12695 633.78906 C 953.34294 634.22106 953.4608 635.0327 953.48242 636.2207 L 953.80664 636.93359 L 949.5625 636.93359 L 949.82227 636.2207 C 949.82227 634.9247 949.93048 634.08216 950.14648 633.69336 C 950.38409 633.30456 950.89037 633.10938 951.66797 633.10938 z M 970.46484 633.10938 C 970.98324 633.10938 971.38326 633.20599 971.66406 633.40039 C 971.96646 633.57319 972.18095 633.96356 972.31055 634.56836 C 972.44013 635.17316 972.51549 635.75481 972.53711 636.31641 C 972.55873 636.87801 972.57031 638.13217 972.57031 640.07617 C 972.57031 642.02017 972.46209 643.40186 972.24609 644.22266 C 972.03009 645.04346 971.43685 645.45312 970.46484 645.45312 C 969.94644 645.45312 969.53482 645.36811 969.23242 645.19531 C 968.95163 645.00092 968.74679 644.58929 968.61719 643.96289 C 968.4876 643.31489 968.41224 642.71004 968.39062 642.14844 C 968.36901 641.56524 968.35938 640.31303 968.35938 638.39062 C 968.35937 636.44662 968.46564 635.08619 968.68164 634.30859 C 968.89764 633.5094 969.49285 633.10938 970.46484 633.10938 z M 984.18359 633.10938 C 985.00439 633.17417 985.51263 633.64955 985.70703 634.53516 C 985.90143 635.42075 985.99805 637.06138 985.99805 639.45898 C 985.99805 641.83498 985.90143 643.42346 985.70703 644.22266 C 985.51263 645.02184 984.98314 645.43151 984.11914 645.45312 L 981.39648 644.35156 L 981.75391 643.34766 L 981.75391 634.59961 L 981.46289 633.72461 L 984.18359 633.10938 z M 996.72461 633.10938 C 997.50221 633.10938 997.98724 633.33547 998.18164 633.78906 C 998.39763 634.22106 998.51744 635.0327 998.53906 636.2207 L 998.86328 636.93359 L 994.61914 636.93359 L 994.87695 636.2207 C 994.87695 634.9247 994.98517 634.08216 995.20117 633.69336 C 995.43878 633.30456 995.94701 633.10938 996.72461 633.10938 z "
     transform="scale(0.9375)" />
</svg>
