<?xml version="1.0" encoding="UTF-8" standalone="no"?>
<svg
   xmlns:dc="http://purl.org/dc/elements/1.1/"
   xmlns:cc="http://creativecommons.org/ns#"
   xmlns:rdf="http://www.w3.org/1999/02/22-rdf-syntax-ns#"
   xmlns:svg="http://www.w3.org/2000/svg"
   xmlns="http://www.w3.org/2000/svg"
   xmlns:sodipodi="http://sodipodi.sourceforge.net/DTD/sodipodi-0.dtd"
   xmlns:inkscape="http://www.inkscape.org/namespaces/inkscape"
   version="1.1"
   id="svg2"
   viewBox="0 0 1052.3622 744.09448"
   height="210mm"
   width="297mm"
   sodipodi:docname="certificate_xa_blue_2020.04.20.svg"
   inkscape:version="0.92.4 (5da689c313, 2019-01-14)">
  <sodipodi:namedview
     pagecolor="#ffffff"
     bordercolor="#666666"
     borderopacity="1"
     objecttolerance="10"
     gridtolerance="10"
     guidetolerance="10"
     inkscape:pageopacity="0"
     inkscape:pageshadow="2"
     inkscape:window-width="3840"
     inkscape:window-height="1901"
     id="namedview84"
     showgrid="false"
     inkscape:zoom="1.5849802"
     inkscape:cx="477.17957"
     inkscape:cy="497.79803"
     inkscape:window-x="9584"
     inkscape:window-y="-16"
     inkscape:window-maximized="1"
     inkscape:current-layer="svg2" />
  <defs
     id="defs4">
    <clipPath
       clipPathUnits="userSpaceOnUse"
       id="clipPath4316">
      <rect
         style="opacity:1;fill:#aaccff;fill-opacity:1;stroke:none;stroke-width:2;stroke-linecap:round;stroke-miterlimit:4;stroke-dasharray:none;stroke-dashoffset:0;stroke-opacity:1"
         id="rect4318"
         width="711.80804"
         height="257.80746"
         x="0"
         y="802.66187" />
    </clipPath>
    <clipPath
       id="clipPath18"
       clipPathUnits="userSpaceOnUse">
      <path
         id="path16"
         d="M 0,800 H 800 V 0 H 0 Z" />
    </clipPath>
    <clipPath
       id="clipPath734"
       clipPathUnits="userSpaceOnUse">
      <path
         id="path732"
         d="M 0,800 H 800 V 0 H 0 Z" />
    </clipPath>
  </defs>
  <metadata
     id="metadata7">
    <rdf:RDF>
      <cc:Work
         rdf:about="">
        <dc:format>image/svg+xml</dc:format>
        <dc:type
           rdf:resource="http://purl.org/dc/dcmitype/StillImage" />
        <dc:title />
      </cc:Work>
    </rdf:RDF>
  </metadata>
  <text
     id="text4133"
     y="-69.905251"
     x="107.01989"
     style="font-style:normal;font-weight:normal;font-size:40px;line-height:125%;font-family:sans-serif;letter-spacing:0px;word-spacing:0px;fill:#000000;fill-opacity:1;stroke:none;stroke-width:1px;stroke-linecap:butt;stroke-linejoin:miter;stroke-opacity:1"
     xml:space="preserve"><tspan
       y="-69.905251"
       x="107.01989"
       id="tspan4135" /></text>
  <path
     id="path4320"
     d="M 0.47490611,602.60044 0.968046,744.90518 1052.2194,744.09448 1052.4987,601.11641 Z"
     style="fill:#3d82ab;fill-opacity:1;fill-rule:evenodd;stroke:none;stroke-width:1px;stroke-linecap:butt;stroke-linejoin:miter;stroke-opacity:1" />
  <text
     id="text4137"
     y="651.76093"
     x="50.615299"
     style="font-style:normal;font-weight:normal;font-size:40px;line-height:125%;font-family:sans-serif;letter-spacing:0px;word-spacing:0px;fill:#d7f4e3;fill-opacity:1;stroke:none;stroke-width:1px;stroke-linecap:butt;stroke-linejoin:miter;stroke-opacity:1"
     xml:space="preserve"><tspan
       style="font-style:normal;font-variant:normal;font-weight:normal;font-stretch:normal;font-size:22.5px;font-family:Economica;-inkscape-font-specification:Economica;fill:#d7f4e3"
       y="651.76093"
       x="50.615299"
       id="tspan4139">This certificate is also available online at the following URL:</tspan></text>
  <path
     id="path4225"
     d="m 860.31918,605.39575 -51.65559,76.28536 32.47349,-0.77775 0.77775,32.47352 55.25554,-79.64955 z"
     style="fill:#d5e5ff;fill-opacity:1;fill-rule:evenodd;stroke:none;stroke-width:1px;stroke-linecap:butt;stroke-linejoin:miter;stroke-opacity:1" />
  <path
     id="path4225-6"
     d="m 946.80372,604.32694 51.65558,76.28536 -32.47348,-0.77774 -0.77775,32.47352 -55.25554,-79.64956 z"
     style="fill:#d5e5ff;fill-opacity:1;fill-rule:evenodd;stroke:none;stroke-width:1px;stroke-linecap:butt;stroke-linejoin:miter;stroke-opacity:1" />
  <path
     d="m 949.10862,639.6777 -2.00897,8.93679 -8.93954,-1.99672 -3.38226,8.51249 -8.51712,-3.37059 -4.67226,7.87859 -7.88499,-4.66147 -5.84722,7.05069 -7.0587,-5.83756 -6.8782,6.04917 -6.0586,-6.86991 -7.73982,4.89871 -4.90931,-7.7331 -8.41086,3.62762 -3.63915,-8.40588 -8.87479,2.26721 -2.27937,-8.87168 -9.1202,0.85098 -0.86348,-9.11903 -9.14103,-0.58621 0.57368,-9.14184 -8.93679,-2.00897 1.99672,-8.93954 -8.51249,-3.38226 3.37059,-8.51712 -7.87858,-4.67226 4.66146,-7.88499 -7.05068,-5.84722 5.83755,-7.0587 -6.04917,-6.8782 6.86991,-6.0586 -4.89871,-7.73982 7.73311,-4.90931 -3.62763,-8.41086 8.40589,-3.63915 -2.26722,-8.87479 8.87168,-2.27937 -0.85097,-9.1202 9.11903,-0.86347 0.58621,-9.14104 9.14183,0.57369 2.00897,-8.93679 8.93954,1.99672 3.38226,-8.51249 8.51712,3.37059 4.67227,-7.87859 7.88498,4.66146 5.84723,-7.05068 7.05869,5.83756 6.87821,-6.04918 6.05859,6.86992 7.73982,-4.89871 4.90932,7.7331 8.41085,-3.62762 3.63915,8.40588 8.87479,-2.26721 2.27938,8.87168 9.12019,-0.85098 0.86348,9.11903 9.14104,0.58621 -0.57369,9.14184 8.93679,2.00897 -1.99672,8.93954 8.51249,3.38225 -3.37059,8.51713 7.87859,4.67226 -4.66147,7.88499 7.05069,5.84722 -5.83756,7.05869 6.04917,6.87821 -6.86991,6.05859 4.89871,7.73983 -7.7331,4.90931 3.62762,8.41086 -8.40588,3.63914 2.26721,8.8748 -8.87168,2.27937 0.85097,9.1202 -9.11902,0.86347 -0.58622,9.14104 z"
     id="path4138"
     style="opacity:1;fill:#3d82ab;fill-opacity:1;stroke:#ffffff;stroke-width:1.9131875;stroke-linecap:butt;stroke-miterlimit:4;stroke-dasharray:none;stroke-dashoffset:0;stroke-opacity:1" />
  <circle
     r="76.527512"
     cy="573.5907"
     cx="899.58423"
     id="path4142"
     style="opacity:1;fill:#3d82ab;fill-opacity:1;stroke:#ffffff;stroke-width:1.9131875;stroke-linecap:butt;stroke-miterlimit:4;stroke-dasharray:none;stroke-dashoffset:0;stroke-opacity:1" />
  <path
     id="path4141"
     d="m 924.61572,502.24564 a 61.495318,64.228447 0 0 0 -11.40627,37.18104 61.495318,64.228447 0 0 0 58.64368,64.07963 76.527504,76.527504 0 0 0 5.58449,-28.54927 76.527504,76.527504 0 0 0 -52.8219,-72.7114 z"
     style="opacity:0.37700004;fill:#87cdde;fill-opacity:1;stroke:none;stroke-width:20;stroke-linecap:butt;stroke-miterlimit:4;stroke-dasharray:none;stroke-dashoffset:0;stroke-opacity:1" />
  <path
     id="path4142-1"
     d="m 825.74931,558.28484 a 53.569253,53.569253 0 0 0 -1.19294,0.042 76.527504,76.527504 0 0 0 -1.54045,15.26346 76.527504,76.527504 0 0 0 45.78852,70.03406 53.569253,53.569253 0 0 0 10.51412,-31.7703 53.569253,53.569253 0 0 0 -53.56925,-53.56926 z"
     style="opacity:0.57999998;fill:#87cdde;fill-opacity:1;stroke:none;stroke-width:2.79999995;stroke-linecap:butt;stroke-miterlimit:4;stroke-dasharray:none;stroke-dashoffset:0;stroke-opacity:1" />
  <g
     transform="translate(0,-308.26772)"
     style="fill:#ffffff;stroke:none"
     id="text4135">
    <g
       transform="translate(-0.24252271,0)"
       style="font-style:normal;font-weight:normal;font-size:35.42939758px;line-height:125%;font-family:sans-serif;text-align:center;letter-spacing:0px;word-spacing:0px;text-anchor:middle;fill:#ffffff;fill-opacity:1;stroke:#ffffff;stroke-width:0.59049004px;stroke-linecap:butt;stroke-linejoin:miter;stroke-opacity:1"
       id="text4203">
      <path
         d="m 865.50619,877.02759 c -1.38175,0.31886 -2.65721,0.46058 -4.14524,0.46058 -2.86979,0 -2.86979,-1.77147 -2.86979,-6.73158 l -0.14171,-0.88574 7.22759,-0.17715 -0.14171,-1.91318 c 0,-5.06641 0,-7.86533 -4.07438,-7.86533 -4.92469,0 -4.92469,2.90521 -4.92469,9.95566 0,7.01502 0,9.56594 4.92469,9.56594 1.48803,0 2.69263,-0.28344 4.14524,-0.6023 l 0,-1.8069 z m -1.91319,-9.06993 -5.03098,0 0.14172,-0.88573 c -0.0354,-3.43665 -0.0354,-5.27898 2.65721,-5.27898 1.84232,0 2.0549,1.84233 2.0549,5.24355 l 0.17715,0.92116 z"
         style="font-style:normal;font-variant:normal;font-weight:normal;font-stretch:normal;font-family:Economica;-inkscape-font-specification:Economica;fill:#ffffff;stroke:#ffffff;stroke-width:0.59049004px"
         id="path4232" />
      <path
         d="m 879.76707,879.18878 -4.32238,-12.61286 c 4.60582,-11.93971 4.39324,-12.22315 4.39324,-12.47115 0,-0.42515 -0.49601,-0.42515 -1.8069,-0.42515 l -0.21257,0 -3.11779,10.59339 -0.67316,0 -2.65721,-8.96364 c -0.56687,-1.66518 -0.63772,-1.62975 -2.12576,-1.62975 l -0.81488,0 4.32239,12.8963 -4.67668,12.61286 0.81488,0 c 1.48803,0 1.48803,0 2.12576,-1.62975 l 2.69264,-8.39677 0.67315,0 2.51549,8.39677 c 0.56687,1.66518 0.56687,1.62975 2.12576,1.62975 l 0.74402,0 z"
         style="font-style:normal;font-variant:normal;font-weight:normal;font-stretch:normal;font-family:Economica;-inkscape-font-specification:Economica;fill:#ffffff;stroke:#ffffff;stroke-width:0.59049004px"
         id="path4234" />
      <path
         d="m 888.68864,879.18878 0,-1.62975 -2.4092,0 c -1.45261,0 -1.41718,-1.66518 -1.41718,-6.44815 l 0,-8.14876 -0.14172,-0.88574 1.5589,0 c 1.70061,0 1.70061,-0.248 1.70061,-1.91318 l -3.25951,0 0.14172,-1.16917 c 0,-1.62976 0,-1.62976 -2.09033,-1.62976 l 0,1.5589 0.14171,1.24003 -1.52346,0 0,1.91318 1.52346,0 -0.14171,0.88574 0,8.14876 c 0,6.37729 0,8.25505 3.47208,8.25505 l 2.44463,-0.17715 z"
         style="font-style:normal;font-variant:normal;font-weight:normal;font-stretch:normal;font-family:Economica;-inkscape-font-specification:Economica;fill:#ffffff;stroke:#ffffff;stroke-width:0.59049004px"
         id="path4236" />
      <path
         d="m 890.97439,877.55903 c 0,1.62975 0,1.62975 2.09033,1.62975 l 0,-14.84492 -0.17714,-0.88573 3.01149,-1.66518 c 1.77147,0 1.77147,0 1.77147,-1.62975 -0.49601,-0.10629 -1.09831,-0.24801 -1.77147,-0.24801 l -2.83435,1.70061 0,-0.38972 c 0,-1.06288 0,-1.06288 -2.09033,-1.06288 l 0,17.39583 z"
         style="font-style:normal;font-variant:normal;font-weight:normal;font-stretch:normal;font-family:Economica;-inkscape-font-specification:Economica;fill:#ffffff;stroke:#ffffff;stroke-width:0.59049004px"
         id="path4238" />
      <path
         d="m 909.23935,877.02759 c -1.38175,0.31886 -2.65721,0.46058 -4.14524,0.46058 -2.86978,0 -2.86978,-1.77147 -2.86978,-6.73158 l -0.14172,-0.88574 7.2276,-0.17715 -0.14172,-1.91318 c 0,-5.06641 0,-7.86533 -4.07438,-7.86533 -4.92469,0 -4.92469,2.90521 -4.92469,9.95566 0,7.01502 0,9.56594 4.92469,9.56594 1.48803,0 2.69263,-0.28344 4.14524,-0.6023 l 0,-1.8069 z m -1.91319,-9.06993 -5.03097,0 0.14171,-0.88573 c -0.0354,-3.43665 -0.0354,-5.27898 2.65721,-5.27898 1.84233,0 2.0549,1.84233 2.0549,5.24355 l 0.17715,0.92116 z"
         style="font-style:normal;font-variant:normal;font-weight:normal;font-stretch:normal;font-family:Economica;-inkscape-font-specification:Economica;fill:#ffffff;stroke:#ffffff;stroke-width:0.59049004px"
         id="path4241" />
      <path
         d="m 928.21235,877.55903 c 0,1.62975 0,1.62975 2.12576,1.62975 l 0,-9.42422 c 0,-8.78649 -0.0354,-9.84937 -4.4641,-9.84937 l -3.79095,1.48803 c -0.63773,-0.77944 -2.01947,-1.48803 -3.75552,-1.48803 l -3.18864,1.31089 c 0,-1.06288 0,-1.06288 -2.09034,-1.06288 l 0,17.39583 c 0,1.62975 0,1.62975 2.09034,1.62975 l 0,-15.27007 -0.14172,-0.88573 3.33036,-1.24003 c 2.58635,0 2.26749,2.83435 2.30292,7.93618 l 0.0354,7.8299 c 0,1.62975 0,1.62975 2.0549,1.62975 l 0,-9.42422 0,-5.98757 -0.14172,-0.88573 3.29494,-1.09831 c 2.37377,0 2.33834,1.02745 2.33834,7.93618 l 0,7.8299 z"
         style="font-style:normal;font-variant:normal;font-weight:normal;font-stretch:normal;font-family:Economica;-inkscape-font-specification:Economica;fill:#ffffff;stroke:#ffffff;stroke-width:0.59049004px"
         id="path4243" />
      <path
         d="m 943.14639,877.02759 c -1.38175,0.31886 -2.6572,0.46058 -4.14524,0.46058 -2.86978,0 -2.86978,-1.77147 -2.86978,-6.73158 l -0.14172,-0.88574 7.2276,-0.17715 -0.14172,-1.91318 c 0,-5.06641 0,-7.86533 -4.07438,-7.86533 -4.92468,0 -4.92468,2.90521 -4.92468,9.95566 0,7.01502 0,9.56594 4.92468,9.56594 1.48804,0 2.69264,-0.28344 4.14524,-0.6023 l 0,-1.8069 z m -1.91319,-9.06993 -5.03097,0 0.14172,-0.88573 c -0.0354,-3.43665 -0.0354,-5.27898 2.6572,-5.27898 1.84233,0 2.05491,1.84233 2.05491,5.24355 l 0.17714,0.92116 z"
         style="font-style:normal;font-variant:normal;font-weight:normal;font-stretch:normal;font-family:Economica;-inkscape-font-specification:Economica;fill:#ffffff;stroke:#ffffff;stroke-width:0.59049004px"
         id="path4245" />
    </g>
    <g
       transform="translate(-0.24252271,0)"
       style="font-style:normal;font-weight:normal;font-size:35.42939758px;line-height:125%;font-family:sans-serif;text-align:center;letter-spacing:0px;word-spacing:0px;text-anchor:middle;fill:#ffffff;fill-opacity:1;stroke:#ffffff;stroke-width:0.59049004px;stroke-linecap:butt;stroke-linejoin:miter;stroke-opacity:1"
       id="text4203-5">
      <path
         d="m 851.8905,912.45001 -5.77499,-25.50916 -2.26748,0 c -5.52699,24.33999 -5.59785,24.69429 -5.59785,24.94229 0,0.56687 0.42515,0.56687 1.94862,0.56687 l 0.17714,0 1.91319,-8.6802 5.38527,0 1.55889,7.05045 c 0.3543,1.59432 0.3543,1.62975 2.48006,1.62975 l 0.17715,0 z m -4.46411,-10.62882 -4.81839,0 0.31886,-0.88573 1.73604,-9.45965 0.67316,0 1.77147,9.45965 0.31886,0.88573 z"
         style="font-style:normal;font-variant:normal;font-weight:normal;font-stretch:normal;font-family:Economica;-inkscape-font-specification:Economica;fill:#ffffff;stroke:#ffffff;stroke-width:0.59049004px"
         id="path4248" />
      <path
         d="m 862.39698,911.03284 c 0,1.41717 0,1.41717 2.09033,1.41717 l 0,-17.39583 c 0,-1.62975 0,-1.62975 -2.09033,-1.62975 l 0,14.88034 0.17714,0.88574 -3.50751,1.62975 c -2.23205,0 -2.23205,-2.94064 -2.23205,-8.04247 l 0,-7.72361 c 0,-1.62975 0,-1.62975 -2.09033,-1.62975 l 0,9.42422 c 0,7.01502 0,9.84937 4.4641,9.84937 l 3.18865,-1.66518 z"
         style="font-style:normal;font-variant:normal;font-weight:normal;font-stretch:normal;font-family:Economica;-inkscape-font-specification:Economica;fill:#ffffff;stroke:#ffffff;stroke-width:0.59049004px"
         id="path4250" />
      <path
         d="m 874.36381,912.45001 0,-1.62975 -2.4092,0 c -1.4526,0 -1.41718,-1.66518 -1.41718,-6.44815 l 0,-8.14876 -0.14171,-0.88574 1.55889,0 c 1.70061,0 1.70061,-0.248 1.70061,-1.91318 l -3.2595,0 0.14171,-1.16917 c 0,-1.62976 0,-1.62976 -2.09033,-1.62976 l 0,1.5589 0.14172,1.24003 -1.52347,0 0,1.91318 1.52347,0 -0.14172,0.88574 0,8.14876 c 0,6.37729 0,8.25505 3.47208,8.25505 l 2.44463,-0.17715 z"
         style="font-style:normal;font-variant:normal;font-weight:normal;font-stretch:normal;font-family:Economica;-inkscape-font-specification:Economica;fill:#ffffff;stroke:#ffffff;stroke-width:0.59049004px"
         id="path4252" />
      <path
         d="m 881.14909,912.69802 c 4.85383,0 4.8184,-2.83435 4.8184,-9.84937 0,-7.01503 0,-9.67223 -4.8184,-9.67223 -4.85383,0 -4.85383,2.62178 -4.85383,9.67223 0,7.05045 0,9.84937 4.85383,9.84937 z m 0,-1.87776 c -2.86978,0 -2.76349,-2.4092 -2.76349,-8.36134 0,-5.34984 0.0354,-7.40474 2.76349,-7.40474 2.90521,0 2.72806,2.37377 2.72806,8.60934 0,5.06641 -0.0709,7.15674 -2.72806,7.15674 z"
         style="font-style:normal;font-variant:normal;font-weight:normal;font-stretch:normal;font-family:Economica;-inkscape-font-specification:Economica;fill:#ffffff;stroke:#ffffff;stroke-width:0.59049004px"
         id="path4254" />
      <path
         d="m 905.03017,910.82026 c 0,1.62975 0,1.62975 2.12576,1.62975 l 0,-9.42422 c 0,-8.78649 -0.0354,-9.84937 -4.4641,-9.84937 l -3.79095,1.48803 c -0.63773,-0.77944 -2.01948,-1.48803 -3.75552,-1.48803 l -3.18864,1.31089 c 0,-1.06288 0,-1.06288 -2.09034,-1.06288 l 0,17.39583 c 0,1.62975 0,1.62975 2.09034,1.62975 l 0,-15.27007 -0.14172,-0.88573 3.33036,-1.24003 c 2.58635,0 2.26749,2.83435 2.30292,7.93618 l 0.0354,7.8299 c 0,1.62975 0,1.62975 2.05491,1.62975 l 0,-9.42422 0,-5.98757 -0.14172,-0.88573 3.29494,-1.09831 c 2.37377,0 2.33834,1.02745 2.33834,7.93618 l 0,7.8299 z"
         style="font-style:normal;font-variant:normal;font-weight:normal;font-stretch:normal;font-family:Economica;-inkscape-font-specification:Economica;fill:#ffffff;stroke:#ffffff;stroke-width:0.59049004px"
         id="path4256" />
      <path
         d="m 917.41329,899.97886 -0.14171,0 c -3.11779,0 -6.3773,0.53145 -6.3773,3.79095 0,7.97161 0,8.92821 2.97607,8.92821 1.27546,0 2.1612,-1.34632 3.25951,-2.01948 0,1.77147 0.0709,1.77147 2.16119,1.77147 l 0,-14.7032 c 0,-3.43665 0,-4.57039 -3.96809,-4.57039 l -3.54294,0.6023 c 0,1.24003 0.53144,1.59432 1.24003,1.59432 0.14172,0 0.35429,-0.0354 0.53144,-0.0709 l 1.77147,-0.35429 c 1.73604,0 1.94862,0.28343 1.94862,2.16119 0,0.21258 0,0.42516 0,0.63773 l 0,1.34632 0.14171,0.88573 z m -0.14171,9.14079 c -1.16917,0.56687 -2.12577,1.70061 -3.43666,1.70061 -0.77944,0 -0.8503,0 -0.8503,-7.33389 0,-1.34631 1.8069,-1.52346 4.14524,-1.52346 l 0.14172,0 -0.14172,0.88574 0,5.38526 0.14172,0.88574 z"
         style="font-style:normal;font-variant:normal;font-weight:normal;font-stretch:normal;font-family:Economica;-inkscape-font-specification:Economica;fill:#ffffff;stroke:#ffffff;stroke-width:0.59049004px"
         id="path4258" />
      <path
         d="m 929.16866,912.45001 0,-1.62975 -2.4092,0 c -1.45261,0 -1.41718,-1.66518 -1.41718,-6.44815 l 0,-8.14876 -0.14172,-0.88574 1.5589,0 c 1.70061,0 1.70061,-0.248 1.70061,-1.91318 l -3.25951,0 0.14172,-1.16917 c 0,-1.62976 0,-1.62976 -2.09033,-1.62976 l 0,1.5589 0.14172,1.24003 -1.52347,0 0,1.91318 1.52347,0 -0.14172,0.88574 0,8.14876 c 0,6.37729 0,8.25505 3.47208,8.25505 l 2.44463,-0.17715 z"
         style="font-style:normal;font-variant:normal;font-weight:normal;font-stretch:normal;font-family:Economica;-inkscape-font-specification:Economica;fill:#ffffff;stroke:#ffffff;stroke-width:0.59049004px"
         id="path4260" />
      <path
         d="m 932.73485,890.16492 c 0.88574,0 1.62975,-0.74402 1.62975,-1.62975 0,-0.88574 -0.74401,-1.59432 -1.62975,-1.59432 -0.88573,0 -1.66518,0.70858 -1.62975,1.59432 0,0.88573 0.74402,1.62975 1.62975,1.62975 z m -1.02745,20.79706 c 0,1.62975 0,1.62975 2.09033,1.62975 l 0,-17.53755 c 0,-1.62975 0,-1.62975 -2.09033,-1.62975 l 0,17.53755 z"
         style="font-style:normal;font-variant:normal;font-weight:normal;font-stretch:normal;font-family:Economica;-inkscape-font-specification:Economica;fill:#ffffff;stroke:#ffffff;stroke-width:0.59049004px"
         id="path4262" />
      <path
         d="m 942.94294,912.69802 c 4.85383,0 4.8184,-2.83435 4.8184,-9.84937 0,-7.01503 0,-9.67223 -4.8184,-9.67223 -4.85382,0 -4.85382,2.62178 -4.85382,9.67223 0,7.05045 0,9.84937 4.85382,9.84937 z m 0,-1.87776 c -2.86978,0 -2.76349,-2.4092 -2.76349,-8.36134 0,-5.34984 0.0354,-7.40474 2.76349,-7.40474 2.90521,0 2.72807,2.37377 2.72807,8.60934 0,5.06641 -0.0709,7.15674 -2.72807,7.15674 z"
         style="font-style:normal;font-variant:normal;font-weight:normal;font-stretch:normal;font-family:Economica;-inkscape-font-specification:Economica;fill:#ffffff;stroke:#ffffff;stroke-width:0.59049004px"
         id="path4264" />
      <path
         d="m 959.31299,910.82026 c 0,1.62975 0,1.62975 2.09033,1.62975 l 0,-9.42422 c 0,-8.29048 0,-9.84937 -4.4641,-9.84937 l -3.18865,1.31089 c 0,-1.06288 0,-1.06288 -2.09033,-1.06288 l 0,17.39583 c 0,1.62975 0,1.62975 2.09033,1.62975 l 0,-15.27007 -0.14172,-0.88573 3.47209,-1.24003 c 2.23205,0 2.23205,1.06288 2.23205,7.93618 l 0,7.8299 z"
         style="font-style:normal;font-variant:normal;font-weight:normal;font-stretch:normal;font-family:Economica;-inkscape-font-specification:Economica;fill:#ffffff;stroke:#ffffff;stroke-width:0.59049004px"
         id="path4266" />
    </g>
  </g>
  <g
     id="text4174"
     style="font-style:normal;font-weight:normal;font-size:40px;line-height:125%;font-family:sans-serif;letter-spacing:0px;word-spacing:0px;fill:#ffffff;fill-opacity:1;stroke:none;stroke-width:1px;stroke-linecap:butt;stroke-linejoin:miter;stroke-opacity:1"
     transform="matrix(-0.33392083,-0.3424395,0.3424395,-0.33392082,657.66185,524.49444)">
    <path
       id="path4183"
       style="font-style:normal;font-variant:normal;font-weight:normal;font-stretch:normal;font-family:Economica;-inkscape-font-specification:Economica;fill:#ffffff"
       d="m -300.61076,311.46364 c -2.11527,-0.14148 -2.11527,-0.14148 -2.2701,2.17334 l 27.37882,1.8313 c 1.8359,0.1228 1.8359,0.1228 1.99073,-2.19202 l -8.62074,-0.57662 1.31505,-2.87866 c 0.35772,-5.34805 -2.7899,-5.63876 -10.69224,-6.16733 -7.90234,-0.52857 -10.93556,-0.73145 -11.28527,4.49686 l 2.18375,3.31313 z m 1.50594,0.26109 -1.57709,-3.39282 c 0.20022,-2.99331 2.74917,-2.74264 9.45419,-2.29416 5.46778,0.36573 8.49833,0.60852 8.30613,3.4821 l -1.25659,3.20328 -0.98709,-0.22638 -12.93111,-0.86493 -1.00844,0.0929 z" />
    <path
       id="path4185"
       style="font-style:normal;font-variant:normal;font-weight:normal;font-stretch:normal;font-family:Economica;-inkscape-font-specification:Economica;fill:#ffffff"
       d="m -303.08377,328.56536 c -0.047,-1.6003 0.0785,-3.04372 0.408,-4.69109 0.63547,-3.17707 2.59663,-2.7848 8.08786,-1.68646 l 1.01196,0.0392 -1.40433,8.04074 2.14943,0.26675 c 5.6089,1.12188 8.70752,1.74166 9.60974,-2.76899 1.09049,-5.45201 -2.1258,-6.09533 -9.9312,-7.65654 -7.76617,-1.55338 -10.59023,-2.11824 -11.68073,3.33377 -0.3295,1.64737 -0.28246,3.04372 -0.25111,4.72247 l 2.00038,0.40011 z m 10.46476,-0.10964 1.11403,-5.56968 0.9492,0.35302 c 3.81248,0.72177 5.85208,1.12973 5.25584,4.11069 -0.40796,2.0396 -2.49463,1.86698 -6.26004,1.11383 l -1.05903,-0.008 z" />
    <path
       id="path4187"
       style="font-style:normal;font-variant:normal;font-weight:normal;font-stretch:normal;font-family:Economica;-inkscape-font-specification:Economica;fill:#ffffff"
       d="m -307.41849,334.59132 c -0.0126,0.038 -1.09344,3.30375 -1.09344,3.30375 15.45102,8.94798 17.8819,10.00533 18.41354,10.18128 0.75949,0.25137 0.86003,-0.0524 1.41303,-1.72329 l -16.32361,-8.85757 0.16339,-0.49367 16.52488,2.39343 c 1.84736,0.27435 1.87249,0.1984 2.57631,-1.92815 l -21.6741,-2.87578 z" />
    <path
       id="path4189"
       style="font-style:normal;font-variant:normal;font-weight:normal;font-stretch:normal;font-family:Economica;-inkscape-font-specification:Economica;fill:#ffffff"
       d="m -314.14165,352.24871 1.67125,0.76975 1.09252,-3.32818 c 1.22156,-2.65221 3.69211,-1.51431 9.39616,1.11288 5.81305,2.6774 7.99295,3.68143 6.77138,6.33363 l -0.66121,1.14874 c -0.63346,0.89728 -0.83668,1.81658 0.72557,2.53613 l 1.86122,-2.79798 c 2.19211,-4.75944 -0.60541,-6.04793 -7.7264,-9.32775 -7.22998,-3.33001 -10.10017,-4.65198 -12.29229,0.10746 l -0.8382,3.44532 z" />
    <path
       id="path4191"
       style="font-style:normal;font-variant:normal;font-weight:normal;font-stretch:normal;font-family:Economica;-inkscape-font-specification:Economica;fill:#ffffff"
       d="m -319.25407,363.72346 c -1.56346,-0.97015 -1.56346,-0.97015 -2.80778,1.03516 l 9.04088,5.61 c 6.72968,4.17586 9.44874,5.86308 12.02175,1.71651 l 0.746,-4.00922 6.0839,3.77514 c 1.56346,0.97016 1.56346,0.97016 2.7867,-1.00116 l -24.87942,-15.43805 c -1.24432,2.00531 -1.24432,2.00531 0.31914,2.97546 l 13.08548,8.11974 0.93407,0.3913 -0.87725,4.06901 c -1.32868,2.14126 -4.04775,0.45404 -8.94206,-2.58295 l -7.51141,-4.66094 z" />
    <path
       id="path4193"
       style="font-style:normal;font-variant:normal;font-weight:normal;font-stretch:normal;font-family:Economica;-inkscape-font-specification:Economica;fill:#ffffff"
       d="m -318.3235,382.75244 0.10141,-0.12376 c 2.23108,-2.72262 4.0995,-5.9493 1.25312,-8.28179 -6.96125,-5.70447 -7.7966,-6.38901 -9.92627,-3.79014 -0.91272,1.1138 -0.37087,2.85069 -0.56898,4.29151 -1.54695,-1.26766 -1.59765,-1.20578 -3.09349,0.61961 l 12.83964,10.52158 c 3.00107,2.45926 3.99112,3.27056 6.83068,-0.19459 l 2.00936,-3.5249 c -1.08287,-0.88736 -1.77255,-0.67681 -2.27962,-0.058 -0.10141,0.12376 -0.22259,0.33474 -0.31842,0.51479 l -0.95827,1.80048 c -1.24231,1.516 -1.64194,1.49881 -3.2817,0.15509 -0.18563,-0.15212 -0.37126,-0.30424 -0.5569,-0.45636 l -1.17568,-0.96342 -0.87488,-0.51007 z m -7.88082,-6.66488 c 0.34163,-1.42664 0.0361,-3.07329 0.97419,-4.21803 0.55777,-0.68066 0.60848,-0.74253 7.01283,4.50558 1.17568,0.96342 0.0374,2.66807 -1.63595,4.71004 l -0.10142,0.12375 -0.67206,-0.75758 -4.70271,-3.85369 -0.87488,-0.51007 z" />
    <path
       id="path4195"
       style="font-style:normal;font-variant:normal;font-weight:normal;font-stretch:normal;font-family:Economica;-inkscape-font-specification:Economica;fill:#ffffff"
       d="m -345.1756,391.70729 c -1.20834,-1.38762 -1.20834,-1.38762 -3.01829,0.18848 l 6.98739,8.02409 c 6.51455,7.48111 7.33277,8.35981 11.10349,5.07626 l 2.12446,-4.07767 c 1.12089,0.19081 2.82272,-0.23034 4.30084,-1.51749 l 1.74299,-3.48028 c 0.78805,0.90497 0.78805,0.90497 2.56783,-0.64486 l -12.89777,-14.81139 c -1.20834,-1.38763 -1.20834,-1.38763 -2.98812,0.16221 l 11.32167,13.00144 0.77737,0.64907 -1.91619,3.52503 c -2.2021,1.91759 -4.03208,-0.73209 -7.84489,-5.04969 l -5.83547,-6.64036 c -1.20835,-1.38763 -1.20835,-1.38763 -2.95796,0.13594 l 6.98738,8.02409 4.43936,5.09801 0.77737,0.64907 -1.9911,3.3781 c -2.0211,1.75998 -2.75272,0.8589 -7.87505,-5.02342 l -5.80531,-6.66663 z" />
    <path
       id="path4197"
       style="font-style:normal;font-variant:normal;font-weight:normal;font-stretch:normal;font-family:Economica;-inkscape-font-specification:Economica;fill:#ffffff"
       d="m -355.19616,388.92421 c -0.94791,-1.57704 -0.94791,-1.57704 -2.93635,-0.38185 l 4.92502,8.19376 -3.55346,-0.0109 c -4.45686,2.67888 -3.28846,5.47682 0.79168,12.26496 3.9359,6.54815 6.07153,9.32475 10.42554,6.70768 l 2.18629,-2.5742 c 0.41214,0.68567 0.44642,0.66507 2.40058,-0.50952 l -14.2393,-23.68991 z m 3.19736,9.51223 0.34375,0.96012 3.11163,5.17681 3.58558,5.96533 0.65231,0.77466 -2.15895,2.46442 c -2.50269,1.5043 -4.49407,-1.03231 -7.46145,-5.96914 -3.29709,-5.48536 -4.21127,-7.78273 -1.67429,-9.30763 l 3.60142,-0.0646 z" />
    <path
       id="path4199"
       style="font-style:normal;font-variant:normal;font-weight:normal;font-stretch:normal;font-family:Economica;-inkscape-font-specification:Economica;fill:#ffffff"
       d="m -356.347,425.28518 c -0.90616,0.42292 -1.31208,1.53936 -0.88915,2.44552 0.42293,0.90617 1.52245,1.27584 2.42861,0.85291 0.90616,-0.42293 1.36525,-1.52003 0.90607,-2.40928 -0.42293,-0.90616 -1.53936,-1.31208 -2.44553,-0.88915 z m -8.87919,-21.76732 c -0.77819,-1.66734 -0.77819,-1.66734 -2.91673,-0.66923 l 8.37397,17.94204 c 0.77818,1.66734 0.77818,1.66734 2.91673,0.66923 l -8.37397,-17.94204 z" />
    <path
       id="path4201"
       style="font-style:normal;font-variant:normal;font-weight:normal;font-stretch:normal;font-family:Economica;-inkscape-font-specification:Economica;fill:#ffffff"
       d="m -377.75691,406.54527 c -5.17876,1.79187 -4.09462,4.80288 -1.50491,12.28752 2.5897,7.48464 3.57065,10.31973 8.71162,8.54094 5.17876,-1.79186 4.21089,-4.58915 1.60811,-12.11159 -2.60279,-7.52244 -3.63605,-10.50874 -8.81482,-8.71687 z m 0.69321,2.00346 c 3.06189,-1.05942 3.83788,1.5503 6.03521,7.9009 1.97498,5.70798 2.69578,7.91353 -0.21492,8.92064 -3.0997,1.0725 -3.787,-1.52557 -6.08897,-8.17859 -1.87034,-5.40557 -2.56642,-7.662 0.26868,-8.64295 z" />
    <path
       id="path4203"
       style="font-style:normal;font-variant:normal;font-weight:normal;font-stretch:normal;font-family:Economica;-inkscape-font-specification:Economica;fill:#ffffff"
       d="m -395.18621,413.22483 c -0.35798,-1.80484 -0.35798,-1.80484 -2.67288,-1.34569 l 2.07007,10.43669 c 1.82104,9.18114 2.16346,10.90751 7.10715,9.92695 l 3.24327,-2.15212 c 0.23346,1.17707 0.23346,1.17707 2.54837,0.71792 l -3.82108,-19.26471 c -0.35798,-1.80484 -0.35798,-1.80484 -2.67288,-1.34569 l 3.35414,16.91057 0.3515,0.94976 -3.57272,2.13591 c -2.47185,0.49028 -2.70531,-0.68679 -4.21507,-8.29851 l -1.71987,-8.67108 z" />
    <path
       id="path4205"
       style="font-style:normal;font-variant:normal;font-weight:normal;font-stretch:normal;font-family:Economica;-inkscape-font-specification:Economica;fill:#ffffff"
       d="m -402.07785,412.8137 c -1.56984,-0.0958 -3.31264,-0.38054 -4.86918,-0.2768 -4.39026,0.29261 -4.31583,4.41679 -4.0977,7.68953 0.13832,2.0754 2.36269,3.57078 4.66954,5.10076 1.68158,1.17076 3.29398,2.50649 3.37911,3.78366 0.11438,1.71619 0.16225,3.03593 -2.55173,3.21681 l -1.65233,-0.1304 c -1.09091,-0.12774 -1.99557,0.133 -1.88119,1.84919 l 3.82883,0.30606 c 4.78938,-0.31921 4.63509,-2.63408 4.43293,-5.66735 -0.16759,-2.51442 -2.52766,-4.24129 -4.79194,-5.73402 -1.63635,-1.0936 -2.94542,-2.08874 -3.06248,-3.24352 -0.24209,-2.42927 0.005,-4.73083 1.92115,-4.85851 1.51664,-0.10109 3.29136,0.0613 4.81598,0.0799 l -0.14099,-2.11531 z" />
  </g>
  <rect
     y="0.60309911"
     x="0.3558996"
     height="257.18121"
     width="1051.6824"
     id="rect4270"
     style="opacity:1;fill:#3d82ab;fill-opacity:1;stroke:none;stroke-width:7.00484991;stroke-linecap:round;stroke-miterlimit:4;stroke-dasharray:none;stroke-dashoffset:0;stroke-opacity:1" />
  <text
     id="text4191"
     y="105.46738"
     x="430.6366"
     style="font-style:normal;font-weight:normal;font-size:26.24400139px;line-height:125%;font-family:sans-serif;letter-spacing:0px;word-spacing:0px;fill:#ffffff;fill-opacity:1;stroke:none;stroke-width:1px;stroke-linecap:butt;stroke-linejoin:miter;stroke-opacity:1"
     xml:space="preserve"><tspan
       style="font-style:normal;font-variant:normal;font-weight:bold;font-stretch:normal;font-size:59.04899979px;font-family:Economica;-inkscape-font-specification:'Economica Bold';fill:#ffffff"
       y="105.46738"
       x="430.6366"
       id="logo">devchampions</tspan></text>
  <path
     style="fill:#ffffff"
     d="m 391.49795,103.02844 c 2.16173,-10.44065 17.55643,-18.452 17.55643,-49.63666 l -44.03516,0 c 0,31.18466 15.39525,39.19601 17.55642,49.63666 l 8.92231,0 z m -13.24854,-34.60255 6.08809,-0.8409 2.68021,-5.52941 2.68095,5.52941 6.08754,0.8409 -4.43132,4.25768 1.08162,6.04937 -5.41879,-2.89867 -5.41934,2.89867 1.08235,-6.04937 -4.43131,-4.25768 z m -12.6452,12.33166 c 0.94133,2.29089 1.96161,4.36479 3.00096,6.26266 C 356.9293,82.11877 349.9662,70.43716 348.84549,58.09419 l 11.96199,0 c 0.0704,1.4007 0.16918,2.77693 0.30408,4.12519 l -7.40633,0 c 1.23967,5.81163 4.31734,13.55206 11.89898,18.53817 z m 34.99169,36.22154 0,4.39221 -27.11802,0 0,-4.39221 c 7.02295,0 8.87522,-5.89242 9.18393,-9.82526 0,0 8.45386,0 8.75034,0 0.30834,3.93284 1.95827,9.82526 9.18375,9.82526 z m 24.59402,-58.8849 c -1.11904,12.32518 -8.06397,23.99086 -19.70983,28.90489 1.04029,-1.90157 2.06149,-3.98011 3.00301,-6.276 7.54401,-4.98721 10.6102,-12.70542 11.84728,-18.5037 l -7.36798,0 c 0.13472,-1.34806 0.23366,-2.72449 0.3039,-4.12519 l 11.92363,0 z"
     id="trophy-7-icon" />
  <path
     id="path4206"
     d="m 434.89208,114.91455 59.577,0"
     style="fill:#002255;fill-opacity:1;fill-rule:evenodd;stroke:#216778;stroke-width:5.2487998;stroke-linecap:round;stroke-linejoin:miter;stroke-miterlimit:4;stroke-dasharray:none;stroke-opacity:1" />
  <text
     id="text4214"
     y="693.59601"
     x="49.804413"
     style="font-style:normal;font-weight:normal;font-size:40px;line-height:125%;font-family:sans-serif;letter-spacing:0px;word-spacing:0px;fill:#d7f4e3;fill-opacity:1;stroke:none;stroke-width:1px;stroke-linecap:butt;stroke-linejoin:miter;stroke-opacity:1"
     xml:space="preserve"><tspan
       style="font-style:normal;font-variant:normal;font-weight:normal;font-stretch:normal;font-family:Economica;-inkscape-font-specification:Economica;fill:#d7f4e3"
       y="693.59601"
       x="49.804413"
       id="cert-url">http://certs.devchampions.com/RWE3SDAS</tspan></text>
  <text
     id="text4218"
     y="330.60184"
     x="126.63776"
     style="font-style:normal;font-weight:normal;font-size:35px;line-height:125%;font-family:sans-serif;letter-spacing:0px;word-spacing:0px;fill:#000000;fill-opacity:1;stroke:none;stroke-width:1px;stroke-linecap:butt;stroke-linejoin:miter;stroke-opacity:1"
     xml:space="preserve"><tspan
       style="font-style:normal;font-variant:normal;font-weight:normal;font-stretch:normal;font-size:30px;font-family:Economica;-inkscape-font-specification:Economica"
       y="330.60184"
       x="126.63776"
       id="tspan4220">This certifies that</tspan></text>
  <text
     id="text4218-2"
     y="330.04404"
     x="731.1488"
     style="font-style:normal;font-weight:normal;font-size:40px;line-height:125%;font-family:sans-serif;letter-spacing:0px;word-spacing:0px;fill:#000000;fill-opacity:1;stroke:none;stroke-width:1px;stroke-linecap:butt;stroke-linejoin:miter;stroke-opacity:1"
     xml:space="preserve"><tspan
       style="font-style:normal;font-variant:normal;font-weight:normal;font-stretch:normal;font-size:30px;font-family:Economica;-inkscape-font-specification:Economica"
       y="330.04404"
       x="731.1488"
       id="tspan4220-3">has successfully completed </tspan></text>
  <path
     id="path4240"
     d="m 78.694418,334.17429 909.668982,0"
     style="fill:none;fill-rule:evenodd;stroke:#000000;stroke-width:2;stroke-linecap:round;stroke-linejoin:miter;stroke-miterlimit:4;stroke-dasharray:none;stroke-opacity:1" />
  <text
     id="text4195-0"
     y="397.21457"
     x="165.49277"
     style="font-style:italic;font-variant:normal;font-weight:bold;font-stretch:normal;font-size:60px;line-height:125%;font-family:Economica;-inkscape-font-specification:'Economica Bold Italic';letter-spacing:0px;word-spacing:0px;fill:#000000;fill-opacity:1;stroke:none;stroke-width:1px;stroke-linecap:butt;stroke-linejoin:miter;stroke-opacity:1"
     xml:space="preserve"><tspan
       style="font-style:italic;font-variant:normal;font-weight:bold;font-stretch:normal;font-size:45px;font-family:Economica;-inkscape-font-specification:'Economica Bold Italic'"
       y="397.21457"
       x="165.49277"
       id="tspan4197-0">eXtreme Automation / DevOps MasterClass</tspan></text>
  <text
     id="cert-name-box"
     y="332.21249"
     x="518.67468"
     style="font-style:normal;font-weight:normal;font-size:60px;line-height:125%;font-family:sans-serif;text-align:center;letter-spacing:0px;word-spacing:0px;text-anchor:middle;fill:#000000;fill-opacity:1;stroke:none;stroke-width:1px;stroke-linecap:butt;stroke-linejoin:miter;stroke-opacity:1"
     xml:space="preserve"><tspan
       style="font-style:italic;font-variant:normal;font-weight:bold;font-stretch:normal;font-family:Economica;-inkscape-font-specification:'Economica Bold Italic'"
       y="332.21249"
       x="518.67468"
       id="cert-name">Martins Dukurs</tspan></text>
  <text
     id="text4266"
     y="464.08401"
     x="216.55035"
     style="font-style:normal;font-weight:normal;font-size:40px;line-height:125%;font-family:sans-serif;letter-spacing:0px;word-spacing:0px;fill:#000000;fill-opacity:1;stroke:none;stroke-width:1px;stroke-linecap:butt;stroke-linejoin:miter;stroke-opacity:1"
     xml:space="preserve"><tspan
       style="font-style:normal;font-variant:normal;font-weight:normal;font-stretch:normal;font-family:Economica;-inkscape-font-specification:Economica"
       y="464.08401"
       x="216.55035"
       id="tspan4268">on: 2020.04.20             online             length: 3 days</tspan></text>
  <path
     id="path4240-9"
     d="m 78.694424,401.3128 909.668976,0"
     style="fill:none;fill-rule:evenodd;stroke:#000000;stroke-width:2;stroke-linecap:round;stroke-linejoin:miter;stroke-miterlimit:4;stroke-dasharray:none;stroke-opacity:1" />
  <path
     id="path4240-9-4"
     d="m 78.616204,468.45127 909.669006,0"
     style="fill:none;fill-rule:evenodd;stroke:#000000;stroke-width:2;stroke-linecap:round;stroke-linejoin:miter;stroke-miterlimit:4;stroke-dasharray:none;stroke-opacity:1" />
  <path
     id="path4240-9-4-0"
     d="m 78.616204,538.17279 651.861516,0"
     style="fill:none;fill-rule:evenodd;stroke:#000000;stroke-width:2;stroke-linecap:round;stroke-linejoin:miter;stroke-miterlimit:4;stroke-dasharray:none;stroke-opacity:1" />
  <text
     id="text4266-1"
     y="534.21997"
     x="316.24777"
     style="font-style:normal;font-weight:normal;font-size:40px;line-height:125%;font-family:sans-serif;letter-spacing:0px;word-spacing:0px;fill:#000000;fill-opacity:1;stroke:none;stroke-width:1px;stroke-linecap:butt;stroke-linejoin:miter;stroke-opacity:1"
     xml:space="preserve"><tspan
       style="font-style:normal;font-variant:normal;font-weight:normal;font-stretch:normal;font-family:Economica;-inkscape-font-specification:Economica"
       y="534.21997"
       x="316.24777"
       id="tspan4268-6">trainer: Andrey Adamovich</tspan></text>
  <text
     id="text4190"
     y="453.85837"
     x="406.9791"
     style="font-style:normal;font-weight:normal;font-size:40px;line-height:125%;font-family:sans-serif;letter-spacing:0px;word-spacing:0px;fill:#000000;fill-opacity:1;stroke:none;stroke-width:1px;stroke-linecap:butt;stroke-linejoin:miter;stroke-opacity:1"
     xml:space="preserve"><tspan
       y="453.85837"
       x="406.9791"
       id="tspan4192" /></text>
  <text
     id="text4218-6"
     y="397.93759"
     x="805.56775"
     style="font-style:normal;font-weight:normal;font-size:35px;line-height:125%;font-family:sans-serif;letter-spacing:0px;word-spacing:0px;fill:#000000;fill-opacity:1;stroke:none;stroke-width:1px;stroke-linecap:butt;stroke-linejoin:miter;stroke-opacity:1"
     xml:space="preserve"><tspan
       style="font-style:normal;font-variant:normal;font-weight:normal;font-stretch:normal;font-size:30px;font-family:Economica;-inkscape-font-specification:Economica"
       y="397.93759"
       x="805.56775"
       id="tspan4220-8">training</tspan></text>
  <text
     id="text4195"
     y="208.43083"
     x="231.17361"
     style="font-style:normal;font-weight:normal;font-size:80px;line-height:125%;font-family:sans-serif;letter-spacing:0px;word-spacing:0px;fill:#ffffff;fill-opacity:1;stroke:none;stroke-width:1px;stroke-linecap:butt;stroke-linejoin:miter;stroke-opacity:1"
     xml:space="preserve"><tspan
       style="font-style:normal;font-variant:normal;font-weight:normal;font-stretch:normal;font-size:80px;font-family:Economica;-inkscape-font-specification:Economica;fill:#ffffff"
       y="208.43083"
       x="231.17361"
       id="tspan4197">Certificate of Attendance</tspan></text>
</svg>
